<?xml version="1.0" encoding="UTF-8"?>
<svg id="Layer_1" xmlns="http://www.w3.org/2000/svg" version="1.1" viewBox="0 0 367 378.04">
  <!-- Generator: Adobe Illustrator 30.1.0, SVG Export Plug-In . SVG Version: 2.1.1 Build 136)  -->
  <g id="Layer_2" display="none">
    <rect width="367" height="378.04"/>
  </g>
  <g id="Layer_11" data-name="Layer_1">
    <path d="M163.76,152.64c13.72-13.03,24.43-24.47,27.71-28.02" fill="none" stroke="#000" stroke-miterlimit="10"/>
    <path d="M92.6,201.78c29.69-18.55,43.6-23.85,71.17-49.14" fill="none" stroke="#000" stroke-miterlimit="10"/>
    <path d="M89.52,166.09c-.82.53-7.28,37.76,3.07,35.69" fill="none" stroke="#000" stroke-miterlimit="10"/>
    <path d="M207.21,217.62c49.63,26.03,57.21,25,39.28-7.15-13.52-.17-26.38,3.07-39.28,7.15Z" fill="none" stroke="#000" stroke-miterlimit="10"/>
    <path d="M264.61,112.91c-3.66-2.31-11.64-5.85-19.63.42" fill="none" stroke="#000" stroke-linecap="round" stroke-linejoin="round" stroke-width="5"/>
    <path d="M297.7,152.54c6.82-4.5,11.2-12.41,11.2-21.47,0-5.78-1.87-11.11-5.02-15.39-4.53-6.16-11.72-10.14-19.81-10.14-9.89,0-18.44,5.95-22.43,14.56" fill="none" stroke="#000" stroke-linecap="round" stroke-linejoin="round" stroke-width="5"/>
    <path d="M199.34,222.41c23.06,11.67,98.88,67.14,58.3-10.95" fill="none" stroke="#000" stroke-linecap="round" stroke-miterlimit="10" stroke-width="2"/>
    <path d="M246.75,211.14c17.92,32.15,10.09,32.51-39.54,6.48" fill="none" stroke="#000" stroke-linecap="round" stroke-miterlimit="10" stroke-width="2"/>
    <path d="M265.38,251.72c-8.93,4.15-35.6,11.81-41.88,13.02-17.15,3.31-42.33,11.46-60.82,59.18" fill="none" stroke="#000" stroke-linecap="round" stroke-miterlimit="10" stroke-width="2"/>
    <path d="M253.03,120.14c23.19,12.39,64.37,54.76,56.53,69.07-14.53,26.52-67.52,13.67-113.45,31.23" fill="none" stroke="#000" stroke-linecap="round" stroke-linejoin="round" stroke-width="2"/>
    <path d="M194.07,130.4c0,15.64,12.68,28.32,28.32,28.32s28.32-12.68,28.32-28.32c0-6.41-2.13-12.33-5.72-17.07-5.17-6.83-13.37-11.25-22.59-11.25-15.64,0-28.32,12.68-28.32,28.32h-.01Z" fill="none" stroke="#000" stroke-linecap="round" stroke-linejoin="round" stroke-width="5"/>
    <path d="M162.85,153.52c13.72-13.03,24.43-24.47,27.71-28.02.99-1.07,2.07-2.04,3.29-2.83" fill="none" stroke="#000" stroke-linecap="round" stroke-linejoin="round" stroke-width="2"/>
    <path d="M88.61,166.97c10-18.42,56.91-70.48,119.74-78.31,10.56-1.32,21,3.27,30.61,9.76,2.91,1.97,3.52,6.05,1.79,9.11l-.51.9" fill="none" stroke="#000" stroke-linecap="round" stroke-linejoin="round" stroke-width="2"/>
    <path d="M84.64,261.14c-5.69,15.1-11.96,28.33-17.78,33.24" fill="none" stroke="#000" stroke-linecap="round" stroke-linejoin="round" stroke-width="2"/>
    <path d="M220.43,90.17c1.49,4.2,2.29,7.79,2.6,10.93" fill="none" stroke="#000" stroke-linecap="round" stroke-linejoin="round"/>
    <path d="M214.39,89.52c.81,4.18,1.42,8.64,1.94,13.22" fill="none" stroke="#000" stroke-linecap="round" stroke-linejoin="round"/>
    <path d="M210.25,88.47c-.42,6.1.19,10.69,1.3,14.55" fill="none" stroke="#000" stroke-linecap="round" stroke-linejoin="round"/>
    <path d="M202.08,89.59c-.61,2.77-.46,12.02.2,20.88" fill="none" stroke="#000" stroke-linecap="round" stroke-linejoin="round"/>
    <path d="M197.76,113.32s-3.47-16.22-1.35-19.27" fill="none" stroke="#000" stroke-linecap="round" stroke-linejoin="round"/>
    <path d="M191.89,124.19s-1.15-27.33.34-28.06" fill="none" stroke="#000" stroke-linecap="round" stroke-linejoin="round"/>
    <path d="M185.22,96.13c-2.5.65-1.91,21.8-2.18,37.33" fill="none" stroke="#000" stroke-linecap="round" stroke-linejoin="round"/>
    <path d="M176.84,101.6c-5.58,5.43-1.75,21.74-4.03,42.25" fill="none" stroke="#000" stroke-linecap="round" stroke-linejoin="round"/>
    <path d="M235.54,105.32s1.94-3.38-1.32-9.69" fill="none" stroke="#000" stroke-linecap="round" stroke-linejoin="round"/>
    <path d="M137.08,117.61c4.06,12.8,7.23,33.92,10.06,46.1" fill="none" stroke="#000" stroke-linecap="round" stroke-linejoin="round"/>
    <path d="M156.62,158.81c-1.23-3.32-5.23-27.83-5.46-37.85" fill="none" stroke="#000" stroke-linecap="round" stroke-linejoin="round"/>
    <path d="M162.85,153.52c3.24-18.9-1.95-45.15,2.31-48.08" fill="none" stroke="#000" stroke-linecap="round" stroke-linejoin="round"/>
    <path d="M223.5,90.44c-14.82-32.09-148.45-79.65-166.95,44.63-1.19,7.98,10.81,10.16,14.54,7,2.98-2.53,14.08,16.06,13.62,23.28" fill="none" stroke="#000" stroke-linecap="round" stroke-linejoin="round" stroke-width="2"/>
    <path d="M130.19,122.67s13.44,43.06,11.92,44.3" fill="none" stroke="#000" stroke-linecap="round" stroke-linejoin="round"/>
    <path d="M124.28,127.38c6.46,4.16,13.47,38.24,14.4,46.05" fill="none" stroke="#000" stroke-linecap="round" stroke-linejoin="round"/>
    <path d="M92.4,202.22s-2.25-5.48-2.52-24.13" fill="none" stroke="#000" stroke-linecap="round" stroke-linejoin="round"/>
    <path d="M101.89,196.41s.58-10.98-7.97-37.6" fill="none" stroke="#000" stroke-linecap="round" stroke-linejoin="round"/>
    <path d="M107.24,193.22s-3.44-24.31-8.4-40.67" fill="none" stroke="#000" stroke-linecap="round" stroke-linejoin="round"/>
    <path d="M114.64,188.83c-2.76-6.28-7.92-35.16-10.89-41.92" fill="none" stroke="#000" stroke-linecap="round" stroke-linejoin="round"/>
    <path d="M121.93,184.45c-.33-3.25-7.3-29.46-11.9-44.12" fill="none" stroke="#000" stroke-linecap="round" stroke-linejoin="round"/>
    <path d="M127.95,180.69c.11-3.63-9.09-38.42-10.84-46.61" fill="none" stroke="#000" stroke-linecap="round" stroke-linejoin="round"/>
    <path d="M126.94,147.67c-.59-1.87-1.17-3.7-1.71-5.42" fill="none" stroke="#000" stroke-linecap="round" stroke-linejoin="round"/>
    <path d="M135.41,175.74c-.51-2.63-3.52-12.37-6.62-22.21" fill="none" stroke="#000" stroke-linecap="round" stroke-linejoin="round"/>
    <path d="M209.66,160.12c-.59,4.31-3.23,10.07-13.26,8.81,0,0,.31,12.26-22.86,10.22.28,1.86-11.61,23.26-18.09,26.76-.88.32-1.86.04-2.44-.69-1.71-2.12-6.5-8.69-10.51-9.03" fill="none" stroke="#000" stroke-linecap="round" stroke-linejoin="round" stroke-width="2"/>
    <path d="M142.38,196.38c-.24,3.87-.89,8.63-2.54,12.36,0,0,2.3,19.71-4.6,32.35-1.67,2.52-2.65,7.95-3.41,14.35-.23,6.11-13.16,10.81-31.02.63,0,0-3.65-1.23-5.67-4.55" fill="none" stroke="#000" stroke-linecap="round" stroke-linejoin="round" stroke-width="2"/>
    <path d="M91.68,202.67c29.69-18.55,43.6-23.85,71.17-49.14" fill="none" stroke="#000" stroke-linecap="round" stroke-linejoin="round" stroke-width="2"/>
    <path d="M91.68,202.67c-10.36,2.07-3.89-35.16-3.07-35.69" fill="none" stroke="#000" stroke-linecap="round" stroke-linejoin="round" stroke-width="2"/>
    <path d="M101.9,227.84c-4.31,36.77-22.32,33-22.32,33-1.38-.58-5.2-.29-4.86-3.5,0,0-23.57.59-8.48-22.22-9.41,2.3-8.51-7.66,25.46-32.46" fill="none" stroke="#000" stroke-linecap="round" stroke-linejoin="round" stroke-width="2"/>
    <path d="M227.07,91.8s3.54,6.83,2.12,9.89" fill="none" stroke="#000" stroke-linecap="round" stroke-linejoin="round"/>
  </g>
</svg>