<?xml version="1.0" encoding="UTF-8"?>
<svg id="Layer_1" xmlns="http://www.w3.org/2000/svg" version="1.1" viewBox="0 0 1000 1000">
  <!-- Generator: Adobe Illustrator 30.1.0, SVG Export Plug-In . SVG Version: 2.1.1 Build 136)  -->
  <g id="Layer_4">
    <rect width="1000" height="1000.24"/>
  </g>
  <g id="Background2">
    <rect x="666.67" y="55.45" width="56.11" height="111.11" fill="none" isolation="isolate" opacity=".5" stroke="#3e0000" stroke-miterlimit="10"/>
    <rect x="722.78" y="55.45" width="111.11" height="111.11" fill="none" isolation="isolate" opacity=".5" stroke="#3e0000" stroke-miterlimit="10"/>
    <rect x="833.89" y="55.45" width="111.11" height="111.11" fill="none" isolation="isolate" opacity=".5" stroke="#3e0000" stroke-miterlimit="10"/>
    <rect x="945" y="55.45" width="55.56" height="111.11" fill="none" isolation="isolate" opacity=".5" stroke="#3e0000" stroke-miterlimit="10"/>
    <rect x="56.11" y="222.15" width="111.11" height="55.56" fill="none" isolation="isolate" opacity=".5" stroke="#3e0000" stroke-miterlimit="10"/>
    <rect x="167.22" y="222.15" width="111.11" height="55.56" fill="none" isolation="isolate" opacity=".5" stroke="#3e0000" stroke-miterlimit="10"/>
    <rect x="278.33" y="222.15" width="111.11" height="55.56" fill="none" isolation="isolate" opacity=".5" stroke="#3e0000" stroke-miterlimit="10"/>
    <rect x="389.44" y="222.15" width="111.11" height="55.56" fill="none" isolation="isolate" opacity=".5" stroke="#3e0000" stroke-miterlimit="10"/>
    <rect x="500.56" y="222.15" width="111.11" height="55.56" fill="none" isolation="isolate" opacity=".5" stroke="#3e0000" stroke-miterlimit="10"/>
    <rect x="722.78" y="166.59" width="111.11" height="111.11" fill="none" isolation="isolate" opacity=".5" stroke="#3e0000" stroke-miterlimit="10"/>
    <rect x="833.89" y="166.59" width="111.11" height="111.11" fill="none" isolation="isolate" opacity=".5" stroke="#3e0000" stroke-miterlimit="10"/>
    <rect x="945" y="166.59" width="55.56" height="111.11" fill="none" isolation="isolate" opacity=".5" stroke="#3e0000" stroke-miterlimit="10"/>
    <rect x="56.11" y="277.73" width="111.11" height="111.11" fill="none" isolation="isolate" opacity=".5" stroke="#3e0000" stroke-miterlimit="10"/>
    <rect x="167.22" y="277.73" width="111.11" height="111.11" fill="none" isolation="isolate" opacity=".5" stroke="#3e0000" stroke-miterlimit="10"/>
    <rect x="278.33" y="277.73" width="111.11" height="111.11" fill="none" isolation="isolate" opacity=".5" stroke="#3e0000" stroke-miterlimit="10"/>
    <rect x="389.44" y="277.73" width="111.11" height="111.11" fill="none" isolation="isolate" opacity=".5" stroke="#3e0000" stroke-miterlimit="10"/>
    <rect x="500.56" y="277.73" width="111.11" height="111.11" fill="none" isolation="isolate" opacity=".5" stroke="#3e0000" stroke-miterlimit="10"/>
    <rect x="611.67" y="277.73" width="111.11" height="111.11" fill="none" isolation="isolate" opacity=".5" stroke="#3e0000" stroke-miterlimit="10"/>
    <rect x="722.78" y="277.73" width="111.11" height="111.11" fill="none" isolation="isolate" opacity=".5" stroke="#3e0000" stroke-miterlimit="10"/>
    <rect x="833.89" y="277.73" width="111.11" height="111.11" fill="none" isolation="isolate" opacity=".5" stroke="#3e0000" stroke-miterlimit="10"/>
    <rect x="945" y="277.73" width="55.56" height="111.11" fill="none" isolation="isolate" opacity=".5" stroke="#3e0000" stroke-miterlimit="10"/>
    <rect x="56.11" y="388.87" width="111.11" height="111.11" fill="none" isolation="isolate" opacity=".5" stroke="#3e0000" stroke-miterlimit="10"/>
    <rect x="167.22" y="388.87" width="111.11" height="111.11" fill="none" isolation="isolate" opacity=".5" stroke="#3e0000" stroke-miterlimit="10"/>
    <rect x="278.33" y="388.87" width="111.11" height="111.11" fill="none" isolation="isolate" opacity=".5" stroke="#3e0000" stroke-miterlimit="10"/>
    <rect x="389.44" y="388.87" width="111.11" height="111.11" fill="none" isolation="isolate" opacity=".5" stroke="#3e0000" stroke-miterlimit="10"/>
    <rect x="500.56" y="388.87" width="111.11" height="111.11" fill="none" isolation="isolate" opacity=".5" stroke="#3e0000" stroke-miterlimit="10"/>
    <rect x="611.67" y="388.87" width="111.11" height="111.11" fill="none" isolation="isolate" opacity=".5" stroke="#3e0000" stroke-miterlimit="10"/>
    <rect x="722.78" y="388.87" width="111.11" height="111.11" fill="none" isolation="isolate" opacity=".5" stroke="#3e0000" stroke-miterlimit="10"/>
    <rect x="833.89" y="388.87" width="111.11" height="111.11" fill="none" isolation="isolate" opacity=".5" stroke="#3e0000" stroke-miterlimit="10"/>
    <rect x="945" y="388.87" width="55.56" height="111.11" fill="none" isolation="isolate" opacity=".5" stroke="#3e0000" stroke-miterlimit="10"/>
    <rect x="56.11" y="500.02" width="111.11" height="111.11" fill="none" isolation="isolate" opacity=".5" stroke="#3e0000" stroke-miterlimit="10"/>
    <rect x="167.22" y="500.02" width="111.11" height="111.11" fill="none" isolation="isolate" opacity=".5" stroke="#3e0000" stroke-miterlimit="10"/>
    <rect x="278.33" y="500.02" width="111.11" height="111.11" fill="none" isolation="isolate" opacity=".5" stroke="#3e0000" stroke-miterlimit="10"/>
    <rect x="389.44" y="500.02" width="111.11" height="111.11" fill="none" isolation="isolate" opacity=".5" stroke="#3e0000" stroke-miterlimit="10"/>
    <rect x="500.56" y="500.02" width="111.11" height="111.11" fill="none" isolation="isolate" opacity=".5" stroke="#3e0000" stroke-miterlimit="10"/>
    <rect x="611.67" y="500.02" width="111.11" height="111.11" fill="none" isolation="isolate" opacity=".5" stroke="#3e0000" stroke-miterlimit="10"/>
    <rect x="722.78" y="500.02" width="111.11" height="111.11" fill="none" isolation="isolate" opacity=".5" stroke="#3e0000" stroke-miterlimit="10"/>
    <rect x="833.89" y="500.02" width="111.11" height="111.11" fill="none" isolation="isolate" opacity=".5" stroke="#3e0000" stroke-miterlimit="10"/>
    <rect x="945" y="500.02" width="55.56" height="111.11" fill="none" isolation="isolate" opacity=".5" stroke="#3e0000" stroke-miterlimit="10"/>
    <rect x="56.11" y="611.16" width="111.11" height="111.11" fill="none" isolation="isolate" opacity=".5" stroke="#3e0000" stroke-miterlimit="10"/>
    <rect x="167.22" y="611.16" width="111.11" height="111.11" fill="none" isolation="isolate" opacity=".5" stroke="#3e0000" stroke-miterlimit="10"/>
    <rect x="278.33" y="611.16" width="111.11" height="111.11" fill="none" isolation="isolate" opacity=".5" stroke="#3e0000" stroke-miterlimit="10"/>
    <rect x="389.44" y="611.16" width="111.11" height="111.11" fill="none" isolation="isolate" opacity=".5" stroke="#3e0000" stroke-miterlimit="10"/>
    <rect x="500.56" y="611.16" width="111.11" height="111.11" fill="none" isolation="isolate" opacity=".5" stroke="#3e0000" stroke-miterlimit="10"/>
    <rect x="611.67" y="611.16" width="111.11" height="111.11" fill="none" isolation="isolate" opacity=".5" stroke="#3e0000" stroke-miterlimit="10"/>
    <rect x="722.78" y="611.16" width="111.11" height="111.11" fill="none" isolation="isolate" opacity=".5" stroke="#3e0000" stroke-miterlimit="10"/>
    <rect x="833.89" y="611.16" width="111.11" height="111.11" fill="none" isolation="isolate" opacity=".5" stroke="#3e0000" stroke-miterlimit="10"/>
    <rect x="945" y="611.16" width="55.56" height="111.11" fill="none" isolation="isolate" opacity=".5" stroke="#3e0000" stroke-miterlimit="10"/>
    <rect x="56.11" y="722.3" width="111.11" height="111.11" fill="none" isolation="isolate" opacity=".5" stroke="#3e0000" stroke-miterlimit="10"/>
    <rect x="167.22" y="722.3" width="111.11" height="111.11" fill="none" isolation="isolate" opacity=".5" stroke="#3e0000" stroke-miterlimit="10"/>
    <rect x="278.33" y="722.3" width="111.11" height="111.11" fill="none" isolation="isolate" opacity=".5" stroke="#3e0000" stroke-miterlimit="10"/>
    <rect x="389.44" y="722.3" width="111.11" height="111.11" fill="none" isolation="isolate" opacity=".5" stroke="#3e0000" stroke-miterlimit="10"/>
    <rect x="500.56" y="722.3" width="111.11" height="111.11" fill="none" isolation="isolate" opacity=".5" stroke="#3e0000" stroke-miterlimit="10"/>
    <rect x="611.67" y="722.3" width="111.11" height="111.11" fill="none" isolation="isolate" opacity=".5" stroke="#3e0000" stroke-miterlimit="10"/>
    <rect x="722.78" y="722.3" width="111.11" height="111.11" fill="none" isolation="isolate" opacity=".5" stroke="#3e0000" stroke-miterlimit="10"/>
    <rect x="833.89" y="722.3" width="111.11" height="111.11" fill="none" isolation="isolate" opacity=".5" stroke="#3e0000" stroke-miterlimit="10"/>
    <rect x="945" y="722.3" width="55.56" height="111.11" fill="none" isolation="isolate" opacity=".5" stroke="#3e0000" stroke-miterlimit="10"/>
    <rect x="56.11" y="833.44" width="111.11" height="111.11" fill="none" isolation="isolate" opacity=".5" stroke="#3e0000" stroke-miterlimit="10"/>
    <rect x="167.22" y="833.44" width="111.11" height="111.11" fill="none" isolation="isolate" opacity=".5" stroke="#3e0000" stroke-miterlimit="10"/>
    <rect x="278.33" y="833.44" width="111.11" height="111.11" fill="none" isolation="isolate" opacity=".5" stroke="#3e0000" stroke-miterlimit="10"/>
    <rect x="389.44" y="833.44" width="111.11" height="111.11" fill="none" isolation="isolate" opacity=".5" stroke="#3e0000" stroke-miterlimit="10"/>
    <rect x="500.56" y="833.44" width="111.11" height="111.11" fill="none" isolation="isolate" opacity=".5" stroke="#3e0000" stroke-miterlimit="10"/>
    <rect x="611.67" y="833.44" width="111.11" height="111.11" fill="none" isolation="isolate" opacity=".5" stroke="#3e0000" stroke-miterlimit="10"/>
    <rect x="722.78" y="833.44" width="111.11" height="111.11" fill="none" isolation="isolate" opacity=".5" stroke="#3e0000" stroke-miterlimit="10"/>
    <rect x="833.89" y="833.44" width="111.11" height="111.11" fill="none" isolation="isolate" opacity=".5" stroke="#3e0000" stroke-miterlimit="10"/>
    <rect x="945" y="833.44" width="55.56" height="111.11" fill="none" isolation="isolate" opacity=".5" stroke="#3e0000" stroke-miterlimit="10"/>
    <rect x="56.11" y="944.58" width="111.11" height="55.66" fill="none" isolation="isolate" opacity=".5" stroke="#3e0000" stroke-miterlimit="10"/>
    <rect x="167.22" y="944.58" width="111.11" height="55.66" fill="none" isolation="isolate" opacity=".5" stroke="#3e0000" stroke-miterlimit="10"/>
    <rect x="278.33" y="944.58" width="111.11" height="55.66" fill="none" isolation="isolate" opacity=".5" stroke="#3e0000" stroke-miterlimit="10"/>
    <rect x="389.44" y="944.58" width="111.11" height="55.66" fill="none" isolation="isolate" opacity=".5" stroke="#3e0000" stroke-miterlimit="10"/>
    <rect x="500.56" y="944.58" width="111.11" height="55.66" fill="none" isolation="isolate" opacity=".5" stroke="#3e0000" stroke-miterlimit="10"/>
    <rect x="611.67" y="944.58" width="111.11" height="55.66" fill="none" isolation="isolate" opacity=".5" stroke="#3e0000" stroke-miterlimit="10"/>
    <rect x="722.78" y="944.58" width="111.11" height="55.66" fill="none" isolation="isolate" opacity=".5" stroke="#3e0000" stroke-miterlimit="10"/>
    <rect x="833.89" y="944.58" width="111.11" height="55.66" fill="none" isolation="isolate" opacity=".5" stroke="#3e0000" stroke-miterlimit="10"/>
    <rect x="945" y="944.58" width="55.56" height="55.66" fill="none" isolation="isolate" opacity=".5" stroke="#3e0000" stroke-miterlimit="10"/>
    <rect y="222.15" width="56.11" height="55.56" fill="none" isolation="isolate" opacity=".5" stroke="#3e0000" stroke-miterlimit="10"/>
    <rect y="277.73" width="56.11" height="111.11" fill="none" isolation="isolate" opacity=".5" stroke="#3e0000" stroke-miterlimit="10"/>
    <rect y="388.87" width="56.11" height="111.11" fill="none" isolation="isolate" opacity=".5" stroke="#3e0000" stroke-miterlimit="10"/>
    <rect y="500.02" width="56.11" height="111.11" fill="none" isolation="isolate" opacity=".5" stroke="#3e0000" stroke-miterlimit="10"/>
    <rect y="611.16" width="56.11" height="111.11" fill="none" isolation="isolate" opacity=".5" stroke="#3e0000" stroke-miterlimit="10"/>
    <rect y="722.3" width="56.11" height="111.11" fill="none" isolation="isolate" opacity=".5" stroke="#3e0000" stroke-miterlimit="10"/>
    <rect y="833.44" width="56.11" height="111.11" fill="none" isolation="isolate" opacity=".5" stroke="#3e0000" stroke-miterlimit="10"/>
    <rect y="944.58" width="56.11" height="55.66" fill="none" isolation="isolate" opacity=".5" stroke="#3e0000" stroke-miterlimit="10"/>
    <rect x="666.67" y="-.69" width="56.11" height="56.11" fill="none" isolation="isolate" opacity=".5" stroke="#3e0000" stroke-miterlimit="10"/>
    <rect x="722.78" width="111.11" height="55.42" fill="none" isolation="isolate" opacity=".5" stroke="#3e0000" stroke-miterlimit="10"/>
    <rect x="833.89" width="111.11" height="55.42" fill="none" isolation="isolate" opacity=".5" stroke="#3e0000" stroke-miterlimit="10"/>
    <rect x="945" width="55.56" height="55.42" fill="none" isolation="isolate" opacity=".5" stroke="#3e0000" stroke-miterlimit="10"/>
  </g>
  <g id="Layer_3">
    <rect x="666.67" width="111.11" height="111.11" fill="none" stroke="#bc141a" stroke-miterlimit="10" stroke-width="2"/>
    <rect x="777.78" width="111.11" height="111.11" fill="none" stroke="#bc141a" stroke-miterlimit="10" stroke-width="2"/>
    <rect x="888.89" width="111.11" height="111.11" fill="none" stroke="#bc141a" stroke-miterlimit="10" stroke-width="2"/>
    <rect x="666.67" y="111.14" width="111.11" height="111.11" fill="none" stroke="#bc141a" stroke-miterlimit="10" stroke-width="2"/>
    <rect x="777.78" y="111.14" width="111.11" height="111.11" fill="none" stroke="#bc141a" stroke-miterlimit="10" stroke-width="2"/>
    <rect x="888.89" y="111.14" width="111.11" height="111.11" fill="none" stroke="#bc141a" stroke-miterlimit="10" stroke-width="2"/>
    <rect y="222.28" width="111.11" height="111.11" fill="none" stroke="#bc141a" stroke-miterlimit="10" stroke-width="2"/>
    <rect x="111.11" y="222.28" width="111.11" height="111.11" fill="none" stroke="#bc141a" stroke-miterlimit="10" stroke-width="2"/>
    <rect x="222.22" y="222.28" width="111.11" height="111.11" fill="none" stroke="#bc141a" stroke-miterlimit="10" stroke-width="2"/>
    <rect x="333.33" y="222.28" width="111.11" height="111.11" fill="none" stroke="#bc141a" stroke-miterlimit="10" stroke-width="2"/>
    <rect x="444.44" y="222.28" width="111.11" height="111.11" fill="none" stroke="#bc141a" stroke-miterlimit="10" stroke-width="2"/>
    <rect x="555.56" y="222.28" width="111.11" height="111.11" fill="none" stroke="#bc141a" stroke-miterlimit="10" stroke-width="2"/>
    <rect x="666.67" y="222.28" width="111.11" height="111.11" fill="none" stroke="#bc141a" stroke-miterlimit="10" stroke-width="2"/>
    <rect x="777.78" y="222.28" width="111.11" height="111.11" fill="none" stroke="#bc141a" stroke-miterlimit="10" stroke-width="2"/>
    <rect x="888.89" y="222.28" width="111.11" height="111.11" fill="none" stroke="#bc141a" stroke-miterlimit="10" stroke-width="2"/>
    <rect y="333.42" width="111.11" height="111.11" fill="none" stroke="#bc141a" stroke-miterlimit="10" stroke-width="2"/>
    <rect x="111.11" y="333.42" width="111.11" height="111.11" fill="none" stroke="#bc141a" stroke-miterlimit="10" stroke-width="2"/>
    <rect x="222.22" y="333.42" width="111.11" height="111.11" fill="none" stroke="#bc141a" stroke-miterlimit="10" stroke-width="2"/>
    <rect x="333.33" y="333.42" width="111.11" height="111.11" fill="none" stroke="#bc141a" stroke-miterlimit="10" stroke-width="2"/>
    <rect x="444.44" y="333.42" width="111.11" height="111.11" fill="none" stroke="#bc141a" stroke-miterlimit="10" stroke-width="2"/>
    <rect x="555.56" y="333.42" width="111.11" height="111.11" fill="none" stroke="#bc141a" stroke-miterlimit="10" stroke-width="2"/>
    <rect x="666.67" y="333.42" width="111.11" height="111.11" fill="none" stroke="#bc141a" stroke-miterlimit="10" stroke-width="2"/>
    <rect x="777.78" y="333.42" width="111.11" height="111.11" fill="none" stroke="#bc141a" stroke-miterlimit="10" stroke-width="2"/>
    <rect x="888.89" y="333.42" width="111.11" height="111.11" fill="none" stroke="#bc141a" stroke-miterlimit="10" stroke-width="2"/>
    <rect y="444.57" width="111.11" height="111.11" fill="none" stroke="#bc141a" stroke-miterlimit="10" stroke-width="2"/>
    <rect x="111.11" y="444.57" width="111.11" height="111.11" fill="none" stroke="#bc141a" stroke-miterlimit="10" stroke-width="2"/>
    <rect x="222.22" y="444.57" width="111.11" height="111.11" fill="none" stroke="#bc141a" stroke-miterlimit="10" stroke-width="2"/>
    <rect x="333.33" y="444.57" width="111.11" height="111.11" fill="none" stroke="#bc141a" stroke-miterlimit="10" stroke-width="2"/>
    <rect x="444.44" y="444.57" width="111.11" height="111.11" fill="none" stroke="#bc141a" stroke-miterlimit="10" stroke-width="2"/>
    <rect x="555.56" y="444.57" width="111.11" height="111.11" fill="none" stroke="#bc141a" stroke-miterlimit="10" stroke-width="2"/>
    <rect x="666.67" y="444.57" width="111.11" height="111.11" fill="none" stroke="#bc141a" stroke-miterlimit="10" stroke-width="2"/>
    <rect x="777.78" y="444.57" width="111.11" height="111.11" fill="none" stroke="#bc141a" stroke-miterlimit="10" stroke-width="2"/>
    <rect x="888.89" y="444.57" width="111.11" height="111.11" fill="none" stroke="#bc141a" stroke-miterlimit="10" stroke-width="2"/>
    <rect y="555.71" width="111.11" height="111.11" fill="none" stroke="#bc141a" stroke-miterlimit="10" stroke-width="2"/>
    <rect x="111.11" y="555.71" width="111.11" height="111.11" fill="none" stroke="#bc141a" stroke-miterlimit="10" stroke-width="2"/>
    <rect x="222.22" y="555.71" width="111.11" height="111.11" fill="none" stroke="#bc141a" stroke-miterlimit="10" stroke-width="2"/>
    <rect x="333.33" y="555.71" width="111.11" height="111.11" fill="none" stroke="#bc141a" stroke-miterlimit="10" stroke-width="2"/>
    <rect x="444.44" y="555.71" width="111.11" height="111.11" fill="none" stroke="#bc141a" stroke-miterlimit="10" stroke-width="2"/>
    <rect x="555.56" y="555.71" width="111.11" height="111.11" fill="none" stroke="#bc141a" stroke-miterlimit="10" stroke-width="2"/>
    <rect x="666.67" y="555.71" width="111.11" height="111.11" fill="none" stroke="#bc141a" stroke-miterlimit="10" stroke-width="2"/>
    <rect x="777.78" y="555.71" width="111.11" height="111.11" fill="none" stroke="#bc141a" stroke-miterlimit="10" stroke-width="2"/>
    <rect x="888.89" y="555.71" width="111.11" height="111.11" fill="none" stroke="#bc141a" stroke-miterlimit="10" stroke-width="2"/>
    <rect y="666.85" width="111.11" height="111.11" fill="none" stroke="#bc141a" stroke-miterlimit="10" stroke-width="2"/>
    <rect x="111.11" y="666.85" width="111.11" height="111.11" fill="none" stroke="#bc141a" stroke-miterlimit="10" stroke-width="2"/>
    <rect x="222.22" y="666.85" width="111.11" height="111.11" fill="none" stroke="#bc141a" stroke-miterlimit="10" stroke-width="2"/>
    <rect x="333.33" y="666.85" width="111.11" height="111.11" fill="none" stroke="#bc141a" stroke-miterlimit="10" stroke-width="2"/>
    <rect x="444.44" y="666.85" width="111.11" height="111.11" fill="none" stroke="#bc141a" stroke-miterlimit="10" stroke-width="2"/>
    <rect x="555.56" y="666.85" width="111.11" height="111.11" fill="none" stroke="#bc141a" stroke-miterlimit="10" stroke-width="2"/>
    <rect x="666.67" y="666.85" width="111.11" height="111.11" fill="none" stroke="#bc141a" stroke-miterlimit="10" stroke-width="2"/>
    <rect x="777.78" y="666.85" width="111.11" height="111.11" fill="none" stroke="#bc141a" stroke-miterlimit="10" stroke-width="2"/>
    <rect x="888.89" y="666.85" width="111.11" height="111.11" fill="none" stroke="#bc141a" stroke-miterlimit="10" stroke-width="2"/>
    <rect y="777.99" width="111.11" height="111.11" fill="none" stroke="#bc141a" stroke-miterlimit="10" stroke-width="2"/>
    <rect x="111.11" y="777.99" width="111.11" height="111.11" fill="none" stroke="#bc141a" stroke-miterlimit="10" stroke-width="2"/>
    <rect x="222.22" y="777.99" width="111.11" height="111.11" fill="none" stroke="#bc141a" stroke-miterlimit="10" stroke-width="2"/>
    <rect x="333.33" y="777.99" width="111.11" height="111.11" fill="none" stroke="#bc141a" stroke-miterlimit="10" stroke-width="2"/>
    <rect x="444.44" y="777.99" width="111.11" height="111.11" fill="none" stroke="#bc141a" stroke-miterlimit="10" stroke-width="2"/>
    <rect x="555.56" y="777.99" width="111.11" height="111.11" fill="none" stroke="#bc141a" stroke-miterlimit="10" stroke-width="2"/>
    <rect x="666.67" y="777.99" width="111.11" height="111.11" fill="none" stroke="#bc141a" stroke-miterlimit="10" stroke-width="2"/>
    <rect x="777.78" y="777.99" width="111.11" height="111.11" fill="none" stroke="#bc141a" stroke-miterlimit="10" stroke-width="2"/>
    <rect x="888.89" y="777.99" width="111.11" height="111.11" fill="none" stroke="#bc141a" stroke-miterlimit="10" stroke-width="2"/>
    <rect y="889.13" width="111.11" height="111.11" fill="none" stroke="#bc141a" stroke-miterlimit="10" stroke-width="2"/>
    <rect x="111.11" y="889.13" width="111.11" height="111.11" fill="none" stroke="#bc141a" stroke-miterlimit="10" stroke-width="2"/>
    <rect x="222.22" y="889.13" width="111.11" height="111.11" fill="none" stroke="#bc141a" stroke-miterlimit="10" stroke-width="2"/>
    <rect x="333.33" y="889.13" width="111.11" height="111.11" fill="none" stroke="#bc141a" stroke-miterlimit="10" stroke-width="2"/>
    <rect x="444.44" y="889.13" width="111.11" height="111.11" fill="none" stroke="#bc141a" stroke-miterlimit="10" stroke-width="2"/>
    <rect x="555.56" y="889.13" width="111.11" height="111.11" fill="none" stroke="#bc141a" stroke-miterlimit="10" stroke-width="2"/>
    <rect x="666.67" y="889.13" width="111.11" height="111.11" fill="none" stroke="#bc141a" stroke-miterlimit="10" stroke-width="2"/>
    <rect x="777.78" y="889.13" width="111.11" height="111.11" fill="none" stroke="#bc141a" stroke-miterlimit="10" stroke-width="2"/>
    <rect x="888.89" y="889.13" width="111.11" height="111.11" fill="none" stroke="#bc141a" stroke-miterlimit="10" stroke-width="2"/>
  </g>
  <g id="Layer_11" data-name="Layer_1">
    <g>
      <path d="M300,845c0,40.04-16.23,76.29-42.47,102.53-26.24,26.24-62.49,42.47-102.53,42.47-80.08,0-145-64.92-145-145s64.92-145,145-145c40.04,0,76.29,16.23,102.53,42.47s42.47,62.49,42.47,102.53Z" stroke="#000" stroke-miterlimit="10" stroke-width="10"/>
      <path d="M240.56,623.33c35.59,0,71.72,15.14,95.74,37.75,12.3,11.58,22.69,25.73,29.45,41.76,6.75,16.02,10.92,38.1,10.92,56.6,0,35.59-15.14,71.72-37.75,95.74-11.58,12.3-25.73,22.69-41.76,29.45-16.02,6.75-38.1,10.92-56.6,10.92-24.38,0-51.59-7.1-71.23-18.53s-35.21-27.21-46.35-46.35c-11.43-19.64-18.53-46.85-18.53-71.23s7.1-51.59,18.53-71.23,27.21-35.21,46.35-46.35c19.64-11.43,46.85-18.53,71.23-18.53Z" fill="#1e1310" stroke="#000" stroke-miterlimit="10" stroke-width="10"/>
      <path d="M326.11,546.67c31.14,0,67.29,13.97,88.96,33.03,12.04,10.59,22.49,23.94,28.71,39.48,5.65,14.12,9.55,38.52,9.55,54.71,0,31.14-13.97,67.29-33.03,88.96-10.59,12.04-23.94,22.49-39.48,28.71-14.12,5.65-38.52,9.55-54.71,9.55-21.33,0-50.14-6.54-67.51-16.22-18.18-10.12-33.37-25.32-43.5-43.5s-16.22-46.17-16.22-67.51,6.54-50.14,16.22-67.51,25.32-33.37,43.5-43.5,46.17-16.22,67.51-16.22v.02Z" fill="#341e19" stroke="#000" stroke-miterlimit="10" stroke-width="10"/>
      <path d="M411.67,470c26.69,0,63,12.68,82.17,28.31,11.82,9.64,22.28,22.14,27.97,37.21,4.61,12.2,8.19,38.94,8.19,52.82,0,26.69-12.68,63-28.31,82.17-9.64,11.82-22.14,22.28-37.21,27.97-12.2,4.61-38.94,8.19-52.82,8.19-18.29,0-48.72-5.93-63.79-13.9-17.25-9.12-31.53-23.4-40.65-40.65-7.97-15.07-13.9-45.5-13.9-63.79s5.93-48.72,13.9-63.79c9.12-17.25,23.4-31.53,40.65-40.65,15.07-7.97,45.5-13.9,63.79-13.9h.01Z" fill="#49251e" stroke="#000" stroke-miterlimit="10" stroke-width="10"/>
      <path d="M497.22,393.33c22.24,0,58.89,11.23,75.38,23.59,11.66,8.74,22.07,20.32,27.24,34.93,3.62,10.24,6.82,39.36,6.82,50.92,0,22.24-11.23,58.89-23.59,75.38-8.74,11.66-20.32,22.07-34.93,27.24-10.24,3.62-39.36,6.82-50.92,6.82-15.24,0-47.35-5.26-60.06-11.58-16.34-8.13-29.67-21.46-37.8-37.8-6.33-12.71-11.58-44.82-11.58-60.06s5.26-47.35,11.58-60.06c8.13-16.34,21.46-29.67,37.8-37.8,12.71-6.33,44.82-11.58,60.06-11.58h0Z" fill="#5e2b21" stroke="#000" stroke-miterlimit="10" stroke-width="10"/>
      <path d="M582.78,316.67c17.8,0,56.93,7.21,68.6,18.88,12.83,5.6,21.84,18.47,26.5,32.65,2.71,8.26,5.46,39.78,5.46,49.03,0,17.8-7.21,56.93-18.88,68.6-5.6,12.83-18.47,21.84-32.65,26.5-8.26,2.71-39.78,5.46-49.03,5.46-12.19,0-46.03-4.49-56.34-9.27-15.47-7.16-27.79-19.48-34.95-34.95-4.77-10.31-9.27-44.15-9.27-56.34s4.49-46.03,9.27-56.34c7.16-15.47,19.48-27.79,34.95-34.95,10.31-4.77,44.15-9.27,56.34-9.27h0Z" fill="#762e24" stroke="#000" stroke-miterlimit="10" stroke-width="10"/>
      <path d="M668.33,240c13.35,0,53.06,5.41,61.81,14.16,12.87,4.2,21.61,16.6,25.76,30.38,1.88,6.24,4.09,40.19,4.09,47.13,0,13.35-5.41,53.06-14.16,61.81-4.2,12.87-16.6,21.61-30.38,25.76-6.24,1.88-40.19,4.09-47.13,4.09-9.14,0-44.77-3.62-52.62-6.95-14.64-6.21-25.89-17.46-32.1-32.1-3.33-7.85-6.95-43.47-6.95-52.62s3.62-44.77,6.95-52.62c6.21-14.64,17.46-25.89,32.1-32.1,7.85-3.33,43.47-6.95,52.62-6.95h0Z" fill="#903025" stroke="#000" stroke-miterlimit="10" stroke-width="10"/>
      <path d="M753.89,163.33c8.9,0,49.19,3.61,55.02,9.44,12.92,2.8,21.37,14.71,25.02,28.1,1.14,4.19,2.73,40.61,2.73,45.24,0,8.9-3.61,49.19-9.44,55.02-2.8,12.92-14.71,21.37-28.1,25.02-4.19,1.14-40.61,2.73-45.24,2.73-6.1,0-44.03-1.69-48.9-4.63-14.59-2.7-26.54-14.66-29.25-29.25-2.94-4.86-4.63-42.8-4.63-48.9s1.69-44.03,4.63-48.9c2.7-14.59,14.66-26.54,29.25-29.25,4.86-2.94,42.8-4.63,48.9-4.63h0Z" fill="#ac3026" stroke="#000" stroke-miterlimit="10" stroke-width="10"/>
      <path d="M839.44,86.67c4.45,0,45.32,1.8,48.24,4.72,12.96,1.4,23.48,12.43,24.29,25.83.88,1.99,1.36,41.03,1.36,43.34,0,4.45-1.8,45.32-4.72,48.24-1.4,12.96-12.43,23.48-25.83,24.29-1.99.88-41.03,1.36-43.34,1.36-3.05,0-42.74-.85-45.17-2.32-13.8-1.35-25.05-12.6-26.4-26.4-1.47-2.43-2.32-42.13-2.32-45.17s.85-42.74,2.32-45.17c1.35-13.8,12.6-25.05,26.4-26.4,2.43-1.47,42.13-2.32,45.17-2.32h0Z" fill="#c92b26" stroke="#000" stroke-miterlimit="10" stroke-width="10"/>
      <path d="M966.45,140h-82.9c-13.01,0-23.55-10.54-23.55-23.55V33.55c0-13.01,10.54-23.55,23.55-23.55h82.9c13.01,0,23.55,10.54,23.55,23.55v82.9c0,13.01-10.54,23.55-23.55,23.55Z" fill="#ed2024" stroke="#000" stroke-miterlimit="10" stroke-width="10"/>
    </g>
    <g>
      <path d="M25.45,46.36c1.76,0,3.35.22,4.78.65,1.42.43,2.65,1.04,3.67,1.82s1.82,1.74,2.38,2.86.84,2.37.84,3.74c0,.99-.14,1.91-.43,2.76s-.69,1.59-1.2,2.23c-.51.64-1.13,1.17-1.85,1.58-.72.42-1.51.69-2.38.82.99.1,1.9.38,2.71.86.82.48,1.52,1.1,2.11,1.85s1.05,1.62,1.37,2.62c.32.99.48,2.05.48,3.17,0,1.5-.29,2.88-.86,4.13s-1.39,2.31-2.45,3.19c-1.06.88-2.33,1.56-3.82,2.04-1.49.48-3.13.72-4.92.72h-6.91c-1.63,0-2.84-.39-3.62-1.18-.78-.78-1.18-1.99-1.18-3.62v-25.44c0-1.63.39-2.84,1.18-3.62.78-.78,1.99-1.18,3.62-1.18,0,0,6.48,0,6.48,0ZM21.13,59.8h4.22c1.34,0,2.43-.26,3.26-.77.83-.51,1.25-1.42,1.25-2.74s-.42-2.22-1.25-2.71c-.83-.5-1.92-.74-3.26-.74h-1.82c-.83,0-1.44.2-1.82.6-.38.4-.58,1-.58,1.8v4.56ZM21.13,66.52v6c0,.8.19,1.4.58,1.8.38.4.99.6,1.82.6h2.11c1.57,0,2.8-.38,3.7-1.13.9-.75,1.34-1.8,1.34-3.14s-.45-2.37-1.34-3.07c-.9-.7-2.13-1.06-3.7-1.06,0,0-4.51,0-4.51,0Z" fill="#fff"/>
      <path d="M58.62,73.48h-8.83l-1.39,6.05c-.19.83-.55,1.43-1.08,1.8-.53.37-1.29.55-2.28.55-1.47,0-2.5-.38-3.1-1.15-.59-.77-.68-1.94-.26-3.5l6.82-26.88c.38-1.54,1.05-2.66,1.99-3.38.94-.72,2.18-1.08,3.72-1.08s2.78.36,3.72,1.08c.94.72,1.61,1.85,1.99,3.38l6.82,26.88c.42,1.57.31,2.74-.31,3.5s-1.66,1.15-3.1,1.15c-.99,0-1.74-.19-2.26-.58-.51-.38-.86-.98-1.06-1.78l-1.39-6.05h0ZM51.13,67.72h6.14l-2.83-12.05c-.06-.22-.14-.34-.24-.34s-.18.11-.24.34c0,0-2.83,12.05-2.83,12.05Z" fill="#fff"/>
      <path d="M86.84,54.04c-.38-.54-.9-.96-1.54-1.25s-1.41-.43-2.3-.43c-1.38,0-2.43.3-3.17.89s-1.1,1.45-1.1,2.57c0,.8.1,1.43.29,1.9.19.46.47.84.84,1.13.37.29.82.51,1.34.67.53.16,1.13.32,1.8.48,1.63.38,3.18.82,4.63,1.3,1.46.48,2.74,1.14,3.86,1.99,1.12.85,2.01,1.92,2.66,3.22.66,1.3.98,2.94.98,4.92,0,1.6-.24,3.04-.72,4.32s-1.22,2.38-2.23,3.29-2.27,1.62-3.79,2.11c-1.52.5-3.32.74-5.4.74-1.47,0-2.8-.14-3.98-.41-1.18-.27-2.23-.65-3.14-1.13s-1.69-1.06-2.33-1.75-1.15-1.45-1.54-2.28c-.67-1.44-.74-2.63-.19-3.58.54-.94,1.62-1.42,3.22-1.42.54,0,1.1.11,1.66.34.56.22,1.11.75,1.66,1.58.42.64,1.02,1.16,1.82,1.56.8.4,1.74.6,2.83.6.77,0,1.47-.09,2.11-.26.64-.18,1.18-.42,1.61-.74s.77-.73,1.01-1.22c.24-.5.36-1.05.36-1.66,0-.86-.14-1.57-.41-2.11-.27-.54-.64-.99-1.1-1.34s-1-.63-1.61-.84-1.26-.39-1.97-.55c-1.63-.38-3.14-.8-4.54-1.25-1.39-.45-2.59-1.05-3.6-1.8-1.01-.75-1.79-1.74-2.35-2.98-.56-1.23-.84-2.84-.84-4.82,0-1.5.26-2.87.79-4.1s1.28-2.28,2.26-3.14,2.16-1.53,3.55-1.99c1.39-.46,2.97-.7,4.73-.7,1.28,0,2.46.12,3.53.36s2.04.59,2.9,1.06c.86.46,1.61,1.02,2.23,1.66s1.13,1.34,1.51,2.11c.74,1.5.86,2.7.38,3.6-.48.9-1.46,1.34-2.93,1.34-.77,0-1.46-.14-2.06-.41-.61-.27-1.18-.79-1.73-1.56v-.02Z" fill="#fff"/>
      <path d="M115.4,74.92h3.7c1.09,0,1.9.26,2.45.79.54.53.82,1.34.82,2.42s-.27,1.9-.82,2.45-1.36.82-2.45.82h-14.59c-1.09,0-1.9-.27-2.45-.82-.54-.54-.82-1.36-.82-2.45s.27-1.9.82-2.42c.54-.53,1.36-.79,2.45-.79h3.7v-22.08h-3.7c-1.09,0-1.9-.27-2.45-.82-.54-.54-.82-1.36-.82-2.45s.27-1.9.82-2.42c.54-.53,1.36-.79,2.45-.79h14.59c1.09,0,1.9.26,2.45.79.54.53.82,1.34.82,2.42s-.27,1.9-.82,2.45-1.36.82-2.45.82h-3.7s0,22.08,0,22.08Z" fill="#fff"/>
      <path d="M128.6,64.56c0-2.59.26-5.02.79-7.3.53-2.27,1.38-4.25,2.57-5.93,1.18-1.68,2.7-3.01,4.56-3.98,1.86-.98,4.13-1.46,6.82-1.46,1.41,0,2.63.14,3.67.41s1.92.64,2.64,1.1,1.3.99,1.75,1.58.8,1.22,1.06,1.9c.38,1.02.5,1.98.36,2.86s-.6,1.51-1.37,1.9c-.64.32-1.38.37-2.23.14-.85-.22-1.51-.75-1.99-1.58-.32-.54-.81-1.01-1.46-1.39-.66-.38-1.53-.58-2.62-.58-1.44,0-2.63.36-3.58,1.08-.94.72-1.7,1.65-2.26,2.78-.56,1.14-.95,2.41-1.18,3.82-.22,1.41-.34,2.8-.34,4.18,0,1.22.1,2.49.29,3.82.19,1.33.55,2.55,1.08,3.67.53,1.12,1.28,2.04,2.26,2.76s2.23,1.08,3.77,1.08c.54,0,1.03-.04,1.46-.12.43-.08.82-.19,1.18-.34.35-.14.66-.3.91-.48.26-.18.48-.36.67-.55.64-.64,1.34-.94,2.11-.91s1.42.32,1.97.86c.54.54.9,1.27,1.06,2.18s-.1,1.83-.77,2.76c-.42.58-.94,1.06-1.56,1.44-.62.38-1.32.7-2.09.96s-1.58.43-2.45.53c-.86.1-1.73.14-2.59.14-2.91,0-5.3-.5-7.18-1.49-1.87-.99-3.35-2.3-4.44-3.91-1.09-1.62-1.84-3.46-2.26-5.54s-.62-4.21-.62-6.38h0Z" fill="#fff"/>
      <path d="M194.17,67.68v10.61c0,1.22-.3,2.12-.91,2.71s-1.52.89-2.74.89-2.11-.3-2.69-.89-.86-1.5-.86-2.71v-27.12c0-1.63.39-2.84,1.18-3.62.78-.78,1.99-1.18,3.62-1.18h7.15c1.63,0,3.18.22,4.66.67,1.47.45,2.78,1.12,3.91,2.02,1.14.9,2.03,2.01,2.69,3.34s.98,2.86.98,4.58-.34,3.3-1.01,4.63-1.57,2.44-2.69,3.34-2.42,1.58-3.89,2.04-3.02.7-4.66.7h-4.75.01ZM194.17,61.44h4.75c.7,0,1.36-.09,1.97-.26.61-.18,1.14-.45,1.61-.82.46-.37.82-.82,1.08-1.37.26-.54.38-1.2.38-1.97,0-1.5-.49-2.62-1.46-3.34-.98-.72-2.17-1.08-3.58-1.08h-2.35c-.8,0-1.4.2-1.8.6-.4.4-.6,1-.6,1.8v6.43h0Z" fill="#fff"/>
      <path d="M222.97,67.68v10.61c0,1.22-.3,2.12-.91,2.71s-1.52.89-2.74.89-2.11-.3-2.69-.89-.86-1.5-.86-2.71v-27.12c0-1.63.39-2.84,1.18-3.62.78-.78,1.99-1.18,3.62-1.18h7.15c1.63,0,3.18.22,4.66.67,1.47.45,2.78,1.12,3.91,2.02,1.14.9,2.03,2.01,2.69,3.34s.98,2.87.98,4.63c0,1.25-.17,2.38-.5,3.41-.34,1.02-.81,1.94-1.42,2.74-.61.8-1.34,1.5-2.18,2.09-.85.59-1.77,1.08-2.76,1.46l5.42,10.9c.74,1.44.87,2.51.41,3.22-.46.7-1.58,1.06-3.34,1.06-.8,0-1.52-.13-2.16-.38-.64-.26-1.18-.85-1.63-1.78l-5.76-12.05h-3.07v-.02ZM222.97,61.44h4.75c.7,0,1.36-.09,1.97-.26.61-.18,1.14-.45,1.61-.82.46-.37.82-.82,1.08-1.37.26-.54.38-1.2.38-1.97,0-1.5-.49-2.62-1.46-3.34-.98-.72-2.17-1.08-3.58-1.08h-2.35c-.8,0-1.4.2-1.8.6-.4.4-.6,1-.6,1.8v6.43h0Z" fill="#fff"/>
      <path d="M259.4,74.92h3.7c1.09,0,1.9.26,2.45.79.54.53.82,1.34.82,2.42s-.27,1.9-.82,2.45-1.36.82-2.45.82h-14.59c-1.09,0-1.9-.27-2.45-.82-.54-.54-.82-1.36-.82-2.45s.27-1.9.82-2.42c.54-.53,1.36-.79,2.45-.79h3.7v-22.08h-3.7c-1.09,0-1.9-.27-2.45-.82-.54-.54-.82-1.36-.82-2.45s.27-1.9.82-2.42c.54-.53,1.36-.79,2.45-.79h14.59c1.09,0,1.9.26,2.45.79.54.53.82,1.34.82,2.42s-.27,1.9-.82,2.45-1.36.82-2.45.82h-3.7v22.08Z" fill="#fff"/>
      <path d="M272.36,51.21c0-1.79.43-3.13,1.3-4.01.86-.88,2.13-1.32,3.79-1.32,1.34,0,2.39.29,3.14.86.75.58,1.32,1.42,1.7,2.54l7.82,22.75v-22.8c0-1.12.28-1.96.84-2.52s1.4-.84,2.52-.84,1.96.28,2.52.84.84,1.4.84,2.52v27.31c0,1.79-.43,3.13-1.3,4.01-.86.88-2.13,1.32-3.79,1.32-1.34,0-2.38-.29-3.12-.86-.74-.58-1.31-1.42-1.73-2.54l-7.82-22.27v22.32c0,1.12-.28,1.96-.84,2.52s-1.4.84-2.52.84-1.96-.28-2.52-.84-.84-1.4-.84-2.52v-27.31h0Z" fill="#fff"/>
      <path d="M301.4,64.56c0-2.59.26-5.02.79-7.3.53-2.27,1.38-4.25,2.57-5.93,1.18-1.68,2.7-3.01,4.56-3.98,1.86-.98,4.13-1.46,6.82-1.46,1.41,0,2.63.14,3.67.41s1.92.64,2.64,1.1,1.3.99,1.75,1.58.8,1.22,1.06,1.9c.38,1.02.5,1.98.36,2.86s-.6,1.51-1.37,1.9c-.64.32-1.38.37-2.23.14-.85-.22-1.51-.75-1.99-1.58-.32-.54-.81-1.01-1.46-1.39-.66-.38-1.53-.58-2.62-.58-1.44,0-2.63.36-3.58,1.08-.94.72-1.7,1.65-2.26,2.78-.56,1.14-.95,2.41-1.18,3.82-.22,1.41-.34,2.8-.34,4.18,0,1.22.1,2.49.29,3.82s.55,2.55,1.08,3.67c.53,1.12,1.28,2.04,2.26,2.76s2.23,1.08,3.77,1.08c.54,0,1.03-.04,1.46-.12s.82-.19,1.18-.34c.35-.14.66-.3.91-.48.26-.18.48-.36.67-.55.64-.64,1.34-.94,2.11-.91s1.42.32,1.97.86c.54.54.9,1.27,1.06,2.18s-.1,1.83-.77,2.76c-.42.58-.94,1.06-1.56,1.44-.62.38-1.32.7-2.09.96s-1.58.43-2.45.53c-.86.1-1.73.14-2.59.14-2.91,0-5.3-.5-7.18-1.49-1.87-.99-3.35-2.3-4.44-3.91-1.09-1.62-1.84-3.46-2.26-5.54s-.62-4.21-.62-6.38h0Z" fill="#fff"/>
      <path d="M345.8,74.92h3.7c1.09,0,1.9.26,2.45.79.54.53.82,1.34.82,2.42s-.27,1.9-.82,2.45-1.36.82-2.45.82h-14.59c-1.09,0-1.9-.27-2.45-.82-.54-.54-.82-1.36-.82-2.45s.27-1.9.82-2.42c.54-.53,1.36-.79,2.45-.79h3.7v-22.08h-3.7c-1.09,0-1.9-.27-2.45-.82-.54-.54-.82-1.36-.82-2.45s.27-1.9.82-2.42c.54-.53,1.36-.79,2.45-.79h14.59c1.09,0,1.9.26,2.45.79.54.53.82,1.34.82,2.42s-.27,1.9-.82,2.45-1.36.82-2.45.82h-3.7v22.08Z" fill="#fff"/>
      <path d="M366.96,67.68v10.61c0,1.22-.3,2.12-.91,2.71-.61.59-1.52.89-2.74.89s-2.11-.3-2.69-.89c-.58-.59-.86-1.5-.86-2.71v-27.12c0-1.63.39-2.84,1.18-3.62.78-.78,1.99-1.18,3.62-1.18h7.15c1.63,0,3.18.22,4.66.67,1.47.45,2.78,1.12,3.91,2.02,1.14.9,2.03,2.01,2.69,3.34s.98,2.86.98,4.58-.34,3.3-1.01,4.63-1.57,2.44-2.69,3.34-2.42,1.58-3.89,2.04-3.02.7-4.66.7h-4.75.01ZM366.96,61.44h4.75c.7,0,1.36-.09,1.97-.26.61-.18,1.14-.45,1.61-.82.46-.37.82-.82,1.08-1.37.26-.54.38-1.2.38-1.97,0-1.5-.49-2.62-1.46-3.34-.98-.72-2.17-1.08-3.58-1.08h-2.35c-.8,0-1.4.2-1.8.6-.4.4-.6,1-.6,1.8v6.43h0Z" fill="#fff"/>
      <path d="M396.67,81.4c-1.92,0-3.36-.48-4.32-1.44s-1.44-2.4-1.44-4.32v-26.16c0-1.22.3-2.12.89-2.71.59-.59,1.5-.89,2.71-.89s2.12.3,2.71.89.89,1.5.89,2.71v22.56c0,.96.24,1.68.72,2.16s1.2.72,2.16.72h8.06c1.09,0,1.9.26,2.42.79.53.53.79,1.34.79,2.42s-.27,1.9-.82,2.45-1.36.82-2.45.82h-12.34.02Z" fill="#fff"/>
      <path d="M425.23,60.28h9.74c1.02,0,1.82.26,2.38.79.56.53.84,1.3.84,2.33s-.28,1.8-.84,2.33-1.35.79-2.38.79h-9.74v6.72c0,.64.16,1.12.48,1.44s.8.48,1.44.48h9.36c1.06,0,1.84.26,2.35.77.51.51.77,1.3.77,2.35s-.26,1.84-.77,2.35c-.51.51-1.3.77-2.35.77h-13.68c-1.63,0-2.84-.39-3.62-1.18-.78-.78-1.18-1.99-1.18-3.62v-25.44c0-1.63.39-2.84,1.18-3.62.78-.78,1.99-1.18,3.62-1.18h13.68c1.06,0,1.84.26,2.35.77.51.51.77,1.3.77,2.35s-.26,1.84-.77,2.35c-.51.51-1.3.77-2.35.77h-9.36c-.7,0-1.2.15-1.49.46-.29.3-.43.79-.43,1.46v5.76h0Z" fill="#fff"/>
      <path d="M461.23,54.04c-.38-.54-.9-.96-1.54-1.25s-1.41-.43-2.3-.43c-1.38,0-2.43.3-3.17.89-.74.59-1.1,1.45-1.1,2.57,0,.8.1,1.43.29,1.9.19.46.47.84.84,1.13s.82.51,1.34.67c.53.16,1.13.32,1.8.48,1.63.38,3.17.82,4.63,1.3s2.74,1.14,3.86,1.99c1.12.85,2.01,1.92,2.66,3.22.66,1.3.98,2.94.98,4.92,0,1.6-.24,3.04-.72,4.32s-1.22,2.38-2.23,3.29-2.27,1.62-3.79,2.11c-1.52.5-3.32.74-5.4.74-1.47,0-2.8-.14-3.98-.41-1.18-.27-2.23-.65-3.14-1.13-.91-.48-1.69-1.06-2.33-1.75-.64-.69-1.15-1.45-1.54-2.28-.67-1.44-.74-2.63-.19-3.58.54-.94,1.62-1.42,3.22-1.42.54,0,1.1.11,1.66.34.56.22,1.11.75,1.66,1.58.42.64,1.02,1.16,1.82,1.56.8.4,1.74.6,2.83.6.77,0,1.47-.09,2.11-.26.64-.18,1.18-.42,1.61-.74s.77-.73,1.01-1.22c.24-.5.36-1.05.36-1.66,0-.86-.14-1.57-.41-2.11s-.64-.99-1.1-1.34-1-.63-1.61-.84-1.26-.39-1.97-.55c-1.63-.38-3.14-.8-4.54-1.25-1.39-.45-2.59-1.05-3.6-1.8-1.01-.75-1.79-1.74-2.35-2.98-.56-1.23-.84-2.84-.84-4.82,0-1.5.26-2.87.79-4.1s1.28-2.28,2.26-3.14,2.16-1.53,3.55-1.99c1.39-.46,2.97-.7,4.73-.7,1.28,0,2.46.12,3.53.36s2.04.59,2.9,1.06c.86.46,1.61,1.02,2.23,1.66.62.64,1.13,1.34,1.51,2.11.74,1.5.86,2.7.38,3.6-.48.9-1.46,1.34-2.93,1.34-.77,0-1.46-.14-2.06-.41-.61-.27-1.18-.79-1.73-1.56v-.02Z" fill="#fff"/>
      <path d="M514.99,81.88c-2.59,0-4.68-.58-6.26-1.75-1.58-1.17-2.82-2.64-3.72-4.42s-1.5-3.72-1.8-5.83-.46-4.11-.46-6,.14-3.89.43-6,.87-4.06,1.75-5.83,2.12-3.25,3.72-4.42,3.71-1.75,6.34-1.75,4.69.58,6.29,1.73c1.6,1.15,2.84,2.61,3.72,4.37.88,1.76,1.47,3.68,1.78,5.76.3,2.08.46,4.03.46,5.86,0,1.95-.15,4-.46,6.14-.3,2.14-.9,4.12-1.8,5.93-.9,1.81-2.14,3.3-3.74,4.46-1.6,1.17-3.68,1.75-6.24,1.75h-.01ZM514.99,75.4c1.15,0,2.06-.42,2.71-1.25.66-.83,1.16-1.85,1.51-3.05.35-1.2.58-2.46.67-3.77.1-1.31.14-2.46.14-3.46s-.05-2.15-.14-3.48c-.1-1.33-.32-2.58-.67-3.77-.35-1.18-.86-2.19-1.51-3.02-.66-.83-1.56-1.25-2.71-1.25s-2.02.42-2.69,1.25c-.67.83-1.18,1.85-1.54,3.05-.35,1.2-.58,2.46-.67,3.77-.1,1.31-.14,2.46-.14,3.46s.05,2.14.14,3.46c.1,1.31.32,2.57.67,3.77s.86,2.22,1.54,3.05c.67.83,1.57,1.25,2.69,1.25h0Z" fill="#fff"/>
      <path d="M539.95,60.48h11.14c1.02,0,1.78.24,2.26.72s.72,1.23.72,2.26-.24,1.78-.72,2.26-1.23.72-2.26.72h-11.14v11.86c0,1.22-.3,2.12-.89,2.71s-1.5.89-2.71.89-2.12-.3-2.71-.89-.89-1.5-.89-2.71v-27.6c0-1.44.36-2.52,1.08-3.24.72-.72,1.8-1.08,3.24-1.08h15.12c1.06,0,1.84.26,2.35.77.51.51.77,1.3.77,2.35s-.26,1.84-.77,2.35-1.3.77-2.35.77h-10.32c-.64,0-1.12.15-1.44.46-.32.3-.48.79-.48,1.46v5.95h0Z" fill="#fff"/>
      <path d="M22.04,117.88h9.74c1.02,0,1.82.26,2.38.79.56.53.84,1.3.84,2.33s-.28,1.8-.84,2.33-1.35.79-2.38.79h-9.74v6.72c0,.64.16,1.12.48,1.44s.8.48,1.44.48h9.36c1.06,0,1.84.26,2.35.77.51.51.77,1.3.77,2.35s-.26,1.84-.77,2.35c-.51.51-1.3.77-2.35.77h-13.68c-1.63,0-2.84-.39-3.62-1.18-.78-.78-1.18-1.99-1.18-3.62v-25.44c0-1.63.39-2.84,1.18-3.62.78-.78,1.99-1.18,3.62-1.18h13.68c1.06,0,1.84.26,2.35.77.51.51.77,1.3.77,2.35s-.26,1.84-.77,2.35-1.3.77-2.35.77h-9.36c-.7,0-1.2.15-1.49.46-.29.3-.43.79-.43,1.46v5.76h0Z" fill="#fff"/>
      <path d="M51.08,139c-1.92,0-3.36-.48-4.32-1.44s-1.44-2.4-1.44-4.32v-26.16c0-1.22.3-2.12.89-2.71s1.5-.89,2.71-.89,2.12.3,2.71.89.89,1.5.89,2.71v22.56c0,.96.24,1.68.72,2.16s1.2.72,2.16.72h8.06c1.09,0,1.9.26,2.42.79.53.53.79,1.34.79,2.42s-.27,1.9-.82,2.45-1.36.82-2.45.82h-12.34.02Z" fill="#fff"/>
      <path d="M79.64,117.88h9.74c1.02,0,1.82.26,2.38.79s.84,1.3.84,2.33-.28,1.8-.84,2.33-1.35.79-2.38.79h-9.74v6.72c0,.64.16,1.12.48,1.44s.8.48,1.44.48h9.36c1.06,0,1.84.26,2.35.77.51.51.77,1.3.77,2.35s-.26,1.84-.77,2.35c-.51.51-1.3.77-2.35.77h-13.68c-1.63,0-2.84-.39-3.62-1.18-.78-.78-1.18-1.99-1.18-3.62v-25.44c0-1.63.39-2.84,1.18-3.62.78-.78,1.99-1.18,3.62-1.18h13.68c1.06,0,1.84.26,2.35.77.51.51.77,1.3.77,2.35s-.26,1.84-.77,2.35-1.3.77-2.35.77h-9.36c-.7,0-1.2.15-1.49.46-.29.3-.43.79-.43,1.46v5.76h0Z" fill="#fff"/>
      <path d="M124.28,136.12c0,1.12-.28,1.96-.84,2.52s-1.4.84-2.52.84-1.96-.28-2.52-.84-.84-1.4-.84-2.52v-24l-2.3,12.58c-.16.93-.54,1.62-1.13,2.09-.59.46-1.37.7-2.33.7s-1.74-.23-2.33-.7c-.59-.46-.97-1.16-1.13-2.09l-2.3-12.58v24c0,1.12-.28,1.96-.84,2.52s-1.4.84-2.52.84-1.96-.28-2.52-.84-.84-1.4-.84-2.52v-26.3c0-2.11.43-3.7,1.3-4.75.86-1.06,2.26-1.58,4.18-1.58,1.5,0,2.63.32,3.38.96s1.26,1.63,1.51,2.98l2.11,11.42,2.11-11.42c.26-1.34.83-2.34,1.73-2.98.9-.64,2.05-.96,3.46-.96,1.76,0,3.06.51,3.91,1.54.85,1.02,1.27,2.53,1.27,4.51v26.59h0Z" fill="#fff"/>
      <path d="M137.24,117.88h9.74c1.02,0,1.82.26,2.38.79s.84,1.3.84,2.33-.28,1.8-.84,2.33-1.35.79-2.38.79h-9.74v6.72c0,.64.16,1.12.48,1.44.32.32.8.48,1.44.48h9.36c1.06,0,1.84.26,2.35.77s.77,1.3.77,2.35-.26,1.84-.77,2.35-1.3.77-2.35.77h-13.68c-1.63,0-2.84-.39-3.62-1.18-.78-.78-1.18-1.99-1.18-3.62v-25.44c0-1.63.39-2.84,1.18-3.62.78-.78,1.99-1.18,3.62-1.18h13.68c1.06,0,1.84.26,2.35.77.51.51.77,1.3.77,2.35s-.26,1.84-.77,2.35-1.3.77-2.35.77h-9.36c-.7,0-1.2.15-1.49.46-.29.3-.43.79-.43,1.46v5.76h0Z" fill="#fff"/>
      <path d="M157.16,108.81c0-1.79.43-3.13,1.3-4.01.86-.88,2.13-1.32,3.79-1.32,1.34,0,2.39.29,3.14.86.75.58,1.32,1.42,1.7,2.54l7.82,22.75v-22.8c0-1.12.28-1.96.84-2.52s1.4-.84,2.52-.84,1.96.28,2.52.84.84,1.4.84,2.52v27.31c0,1.79-.43,3.13-1.3,4.01-.86.88-2.13,1.32-3.79,1.32-1.34,0-2.38-.29-3.12-.86-.74-.58-1.31-1.42-1.73-2.54l-7.82-22.27v22.32c0,1.12-.28,1.96-.84,2.52s-1.4.84-2.52.84-1.96-.28-2.52-.84-.84-1.4-.84-2.52v-27.31h0Z" fill="#fff"/>
      <path d="M194.6,110.44h-5.62c-1.09,0-1.9-.27-2.45-.82-.54-.54-.82-1.36-.82-2.45s.26-1.9.79-2.42c.53-.53,1.34-.79,2.42-.79h18.53c1.09,0,1.9.26,2.42.79.53.53.79,1.34.79,2.42s-.27,1.9-.82,2.45-1.36.82-2.45.82h-5.62v24.96c0,1.22-.3,2.12-.89,2.71-.59.59-1.5.89-2.71.89s-2.12-.3-2.71-.89c-.59-.59-.89-1.5-.89-2.71v-24.96h.03Z" fill="#fff"/>
      <path d="M231.41,131.08h-8.83l-1.39,6.05c-.19.83-.55,1.43-1.08,1.8-.53.37-1.29.55-2.28.55-1.47,0-2.5-.38-3.1-1.15-.59-.77-.68-1.94-.26-3.5l6.82-26.88c.38-1.54,1.05-2.66,1.99-3.38.94-.72,2.18-1.08,3.72-1.08s2.78.36,3.72,1.08,1.61,1.85,1.99,3.38l6.82,26.88c.42,1.57.31,2.74-.31,3.5s-1.66,1.15-3.1,1.15c-.99,0-1.74-.19-2.26-.58-.51-.38-.86-.98-1.06-1.78l-1.39-6.05h0ZM223.93,125.32h6.14l-2.83-12.05c-.06-.22-.14-.34-.24-.34s-.18.11-.24.34l-2.83,12.05h0Z" fill="#fff"/>
      <path d="M251.76,125.28v10.61c0,1.22-.3,2.12-.91,2.71-.61.59-1.52.89-2.74.89s-2.11-.3-2.69-.89-.86-1.5-.86-2.71v-27.12c0-1.63.39-2.84,1.18-3.62.78-.78,1.99-1.18,3.62-1.18h7.15c1.63,0,3.18.22,4.66.67,1.47.45,2.78,1.12,3.91,2.02,1.14.9,2.03,2.01,2.69,3.34.66,1.33.98,2.87.98,4.63,0,1.25-.17,2.38-.5,3.41-.34,1.02-.81,1.94-1.42,2.74-.61.8-1.34,1.5-2.18,2.09-.85.59-1.77,1.08-2.76,1.46l5.42,10.9c.74,1.44.87,2.51.41,3.22-.46.7-1.58,1.06-3.34,1.06-.8,0-1.52-.13-2.16-.38-.64-.26-1.18-.85-1.63-1.78l-5.76-12.05h-3.07v-.02ZM251.76,119.04h4.75c.7,0,1.36-.09,1.97-.26.61-.18,1.14-.45,1.61-.82.46-.37.82-.82,1.08-1.37.26-.54.38-1.2.38-1.97,0-1.5-.49-2.62-1.46-3.34-.98-.72-2.17-1.08-3.58-1.08h-2.35c-.8,0-1.4.2-1.8.6-.4.4-.6,1-.6,1.8v6.43h0Z" fill="#fff"/>
      <path d="M284.6,139.48c-1.22,0-2.12-.3-2.71-.89s-.89-1.5-.89-2.71v-7.92c0-.48-.05-.94-.14-1.39-.1-.45-.24-.9-.43-1.34l-7.73-17.66c-.26-.58-.35-1.12-.29-1.63.06-.51.24-.94.53-1.3.29-.35.68-.63,1.18-.84s1.03-.31,1.61-.31c.83,0,1.57.22,2.21.67.64.45,1.15,1.14,1.54,2.06l4.61,11.28c.19.45.37.67.53.67s.34-.22.53-.67l4.61-11.28c.38-.93.9-1.62,1.54-2.06.64-.45,1.38-.67,2.21-.67.58,0,1.11.1,1.61.31s.89.49,1.18.84c.29.35.46.78.53,1.3.06.51-.03,1.06-.29,1.63l-7.73,17.66c-.19.45-.34.9-.43,1.34-.1.45-.14.91-.14,1.39v7.92c0,1.22-.3,2.12-.89,2.71-.59.59-1.5.89-2.71.89h-.04Z" fill="#fff"/>
      <path d="M354.68,136.12c0,1.12-.28,1.96-.84,2.52s-1.4.84-2.52.84-1.96-.28-2.52-.84-.84-1.4-.84-2.52v-24l-2.3,12.58c-.16.93-.54,1.62-1.13,2.09-.59.46-1.37.7-2.33.7s-1.74-.23-2.33-.7c-.59-.46-.97-1.16-1.13-2.09l-2.3-12.58v24c0,1.12-.28,1.96-.84,2.52s-1.4.84-2.52.84-1.96-.28-2.52-.84-.84-1.4-.84-2.52v-26.3c0-2.11.43-3.7,1.3-4.75.86-1.06,2.26-1.58,4.18-1.58,1.5,0,2.63.32,3.38.96s1.26,1.63,1.51,2.98l2.11,11.42,2.11-11.42c.26-1.34.83-2.34,1.73-2.98.9-.64,2.05-.96,3.46-.96,1.76,0,3.06.51,3.91,1.54.85,1.02,1.27,2.53,1.27,4.51v26.59h0Z" fill="#fff"/>
      <path d="M375.41,131.08h-8.83l-1.39,6.05c-.19.83-.55,1.43-1.08,1.8-.53.37-1.29.55-2.28.55-1.47,0-2.5-.38-3.1-1.15-.59-.77-.68-1.94-.26-3.5l6.82-26.88c.38-1.54,1.05-2.66,1.99-3.38.94-.72,2.18-1.08,3.72-1.08s2.78.36,3.72,1.08,1.61,1.85,1.99,3.38l6.82,26.88c.42,1.57.31,2.74-.31,3.5s-1.66,1.15-3.1,1.15c-.99,0-1.74-.19-2.26-.58-.51-.38-.86-.98-1.06-1.78l-1.39-6.05h0ZM367.92,125.32h6.14l-2.83-12.05c-.06-.22-.14-.34-.24-.34s-.18.11-.24.34l-2.83,12.05h0Z" fill="#fff"/>
      <path d="M396.19,110.44h-5.62c-1.09,0-1.9-.27-2.45-.82-.54-.54-.82-1.36-.82-2.45s.26-1.9.79-2.42c.53-.53,1.34-.79,2.42-.79h18.53c1.09,0,1.9.26,2.42.79.53.53.79,1.34.79,2.42s-.27,1.9-.82,2.45-1.36.82-2.45.82h-5.62v24.96c0,1.22-.3,2.12-.89,2.71-.59.59-1.5.89-2.71.89s-2.12-.3-2.71-.89-.89-1.5-.89-2.71v-24.96h.03Z" fill="#fff"/>
      <path d="M432.63,124.17h-8.06v11.71c0,1.22-.3,2.12-.89,2.71-.59.59-1.5.89-2.71.89s-2.12-.3-2.71-.89-.89-1.5-.89-2.71v-28.8c0-1.22.3-2.12.89-2.71.59-.59,1.49-.89,2.71-.89s2.12.3,2.71.89.89,1.5.89,2.71v10.37h8.06v-10.37c0-1.22.3-2.12.89-2.71.59-.59,1.5-.89,2.71-.89s2.12.3,2.71.89.89,1.5.89,2.71v28.8c0,1.22-.3,2.12-.89,2.71-.59.59-1.5.89-2.71.89s-2.12-.3-2.71-.89-.89-1.5-.89-2.71v-11.71Z" fill="#fff"/>
      <path d="M454.03,117.88h9.74c1.02,0,1.82.26,2.38.79s.84,1.3.84,2.33-.28,1.8-.84,2.33-1.35.79-2.38.79h-9.74v6.72c0,.64.16,1.12.48,1.44s.8.48,1.44.48h9.36c1.06,0,1.84.26,2.35.77.51.51.77,1.3.77,2.35s-.26,1.84-.77,2.35c-.51.51-1.3.77-2.35.77h-13.68c-1.63,0-2.84-.39-3.62-1.18s-1.18-1.99-1.18-3.62v-25.44c0-1.63.39-2.84,1.18-3.62s1.99-1.18,3.62-1.18h13.68c1.06,0,1.84.26,2.35.77.51.51.77,1.3.77,2.35s-.26,1.84-.77,2.35c-.51.51-1.3.77-2.35.77h-9.36c-.7,0-1.2.15-1.49.46-.29.3-.43.79-.43,1.46v5.76h0Z" fill="#fff"/>
      <path d="M498.67,136.12c0,1.12-.28,1.96-.84,2.52s-1.4.84-2.52.84-1.96-.28-2.52-.84-.84-1.4-.84-2.52v-24l-2.3,12.58c-.16.93-.54,1.62-1.13,2.09s-1.37.7-2.33.7-1.74-.23-2.33-.7c-.59-.46-.97-1.16-1.13-2.09l-2.3-12.58v24c0,1.12-.28,1.96-.84,2.52s-1.4.84-2.52.84-1.96-.28-2.52-.84-.84-1.4-.84-2.52v-26.3c0-2.11.43-3.7,1.3-4.75s2.26-1.58,4.18-1.58c1.5,0,2.63.32,3.38.96s1.25,1.63,1.51,2.98l2.11,11.42,2.11-11.42c.26-1.34.83-2.34,1.73-2.98.9-.64,2.05-.96,3.46-.96,1.76,0,3.06.51,3.91,1.54.85,1.02,1.27,2.53,1.27,4.51v26.59h0Z" fill="#fff"/>
      <path d="M519.41,131.08h-8.83l-1.39,6.05c-.19.83-.55,1.43-1.08,1.8-.53.37-1.29.55-2.28.55-1.47,0-2.5-.38-3.1-1.15s-.68-1.94-.26-3.5l6.82-26.88c.38-1.54,1.05-2.66,1.99-3.38.94-.72,2.18-1.08,3.72-1.08s2.78.36,3.72,1.08c.94.72,1.61,1.85,1.99,3.38l6.82,26.88c.42,1.57.31,2.74-.31,3.5s-1.66,1.15-3.1,1.15c-.99,0-1.74-.19-2.26-.58-.51-.38-.86-.98-1.06-1.78l-1.39-6.05h0ZM511.92,125.32h6.14l-2.83-12.05c-.06-.22-.14-.34-.24-.34s-.18.11-.24.34l-2.83,12.05Z" fill="#fff"/>
      <path d="M540.19,110.44h-5.62c-1.09,0-1.9-.27-2.45-.82-.54-.54-.82-1.36-.82-2.45s.26-1.9.79-2.42,1.34-.79,2.42-.79h18.53c1.09,0,1.9.26,2.42.79s.79,1.34.79,2.42-.27,1.9-.82,2.45c-.54.54-1.36.82-2.45.82h-5.62v24.96c0,1.22-.3,2.12-.89,2.71s-1.5.89-2.71.89-2.12-.3-2.71-.89-.89-1.5-.89-2.71v-24.96h.03Z" fill="#fff"/>
      <path d="M576.19,132.52h3.7c1.09,0,1.9.26,2.45.79s.82,1.34.82,2.42-.27,1.9-.82,2.45c-.54.54-1.36.82-2.45.82h-14.59c-1.09,0-1.9-.27-2.45-.82-.54-.54-.82-1.36-.82-2.45s.27-1.9.82-2.42c.54-.53,1.36-.79,2.45-.79h3.7v-22.08h-3.7c-1.09,0-1.9-.27-2.45-.82-.54-.54-.82-1.36-.82-2.45s.27-1.9.82-2.42c.54-.53,1.36-.79,2.45-.79h14.59c1.09,0,1.9.26,2.45.79s.82,1.34.82,2.42-.27,1.9-.82,2.45c-.54.54-1.36.82-2.45.82h-3.7v22.08Z" fill="#fff"/>
      <path d="M589.39,122.16c0-2.59.26-5.02.79-7.3.53-2.27,1.38-4.25,2.57-5.93,1.18-1.68,2.7-3.01,4.56-3.98,1.86-.98,4.13-1.46,6.82-1.46,1.41,0,2.63.14,3.67.41,1.04.27,1.92.64,2.64,1.1.72.46,1.3.99,1.75,1.58.45.59.8,1.22,1.06,1.9.38,1.02.5,1.98.36,2.86s-.6,1.51-1.37,1.9c-.64.32-1.38.37-2.23.14-.85-.22-1.51-.75-1.99-1.58-.32-.54-.81-1.01-1.46-1.39-.66-.38-1.53-.58-2.62-.58-1.44,0-2.63.36-3.58,1.08-.94.72-1.7,1.65-2.26,2.78-.56,1.14-.95,2.41-1.18,3.82-.22,1.41-.34,2.8-.34,4.18,0,1.22.1,2.49.29,3.82s.55,2.55,1.08,3.67c.53,1.12,1.28,2.04,2.26,2.76s2.23,1.08,3.77,1.08c.54,0,1.03-.04,1.46-.12s.82-.19,1.18-.34c.35-.14.66-.3.91-.48.26-.18.48-.36.67-.55.64-.64,1.34-.94,2.11-.91.77.03,1.42.32,1.97.86.54.54.9,1.27,1.06,2.18s-.1,1.83-.77,2.76c-.42.58-.94,1.06-1.56,1.44s-1.32.7-2.09.96c-.77.26-1.58.43-2.45.53-.86.1-1.73.14-2.59.14-2.91,0-5.3-.5-7.18-1.49-1.87-.99-3.35-2.3-4.44-3.91-1.09-1.62-1.84-3.46-2.26-5.54-.42-2.08-.62-4.21-.62-6.38h.01Z" fill="#fff"/>
      <path d="M634.03,111.64c-.38-.54-.9-.96-1.54-1.25-.64-.29-1.41-.43-2.3-.43-1.38,0-2.43.3-3.17.89s-1.1,1.45-1.1,2.57c0,.8.1,1.43.29,1.9.19.46.47.84.84,1.13.37.29.82.51,1.34.67.53.16,1.13.32,1.8.48,1.63.38,3.17.82,4.63,1.3s2.74,1.14,3.86,1.99,2.01,1.92,2.66,3.22c.66,1.3.98,2.94.98,4.92,0,1.6-.24,3.04-.72,4.32-.48,1.28-1.22,2.38-2.23,3.29s-2.27,1.62-3.79,2.11c-1.52.5-3.32.74-5.4.74-1.47,0-2.8-.14-3.98-.41s-2.23-.65-3.14-1.13c-.91-.48-1.69-1.06-2.33-1.75s-1.15-1.45-1.54-2.28c-.67-1.44-.74-2.63-.19-3.58.54-.94,1.62-1.42,3.22-1.42.54,0,1.1.11,1.66.34.56.22,1.11.75,1.66,1.58.42.64,1.02,1.16,1.82,1.56s1.74.6,2.83.6c.77,0,1.47-.09,2.11-.26.64-.18,1.18-.42,1.61-.74s.77-.73,1.01-1.22c.24-.5.36-1.05.36-1.66,0-.86-.14-1.57-.41-2.11-.27-.54-.64-.99-1.1-1.34-.46-.35-1-.63-1.61-.84s-1.26-.39-1.97-.55c-1.63-.38-3.14-.8-4.54-1.25-1.39-.45-2.59-1.05-3.6-1.8-1.01-.75-1.79-1.74-2.35-2.98-.56-1.23-.84-2.84-.84-4.82,0-1.5.26-2.87.79-4.1.53-1.23,1.28-2.28,2.26-3.14s2.16-1.53,3.55-1.99,2.97-.7,4.73-.7c1.28,0,2.46.12,3.53.36s2.04.59,2.9,1.06c.86.46,1.61,1.02,2.23,1.66.62.64,1.13,1.34,1.51,2.11.74,1.5.86,2.7.38,3.6s-1.46,1.34-2.93,1.34c-.77,0-1.46-.14-2.06-.41-.61-.27-1.18-.79-1.73-1.56v-.02Z" fill="#fff"/>
    </g>
    <g>
      <path d="M17.55,165.54h5.28c.31,0,.53.07.68.22s.22.37.22.68-.07.53-.22.68-.37.22-.68.22h-5.28v5.94c0,.36-.08.62-.25.79s-.43.25-.79.25-.61-.08-.78-.25-.26-.43-.26-.79v-12.12c0-.56.14-.97.41-1.24s.69-.4,1.25-.4h6.14c.33,0,.58.08.74.24s.24.41.24.74-.08.6-.24.76-.41.24-.74.24h-4.92c-.27,0-.47.07-.6.2s-.2.33-.2.6v3.24h0Z" fill="#fff"/>
      <path d="M31.69,174.32c-.79,0-1.47-.15-2.04-.44-.57-.29-1.05-.69-1.43-1.2-.38-.51-.66-1.11-.84-1.81s-.27-1.46-.27-2.27.09-1.56.26-2.25.45-1.28.84-1.79.87-.91,1.44-1.2,1.25-.44,2.04-.44,1.49.15,2.06.44c.57.29,1.05.69,1.43,1.19s.66,1.1.83,1.79.26,1.45.26,2.26-.09,1.57-.27,2.27-.46,1.3-.84,1.81-.86.91-1.43,1.2-1.25.44-2.04.44ZM31.69,172.36c.44,0,.82-.09,1.13-.28.31-.19.57-.45.78-.78s.36-.73.46-1.19.15-.96.15-1.51-.05-1.05-.14-1.5-.24-.84-.45-1.17-.47-.58-.79-.77-.7-.28-1.14-.28-.82.09-1.14.28-.58.45-.79.78c-.21.33-.36.73-.45,1.18s-.14.95-.14,1.5.05,1.05.15,1.5.25.85.46,1.18.47.59.78.78c.31.19.69.28,1.13.28h0Z" fill="#fff"/>
      <path d="M45.87,163.96c0-.36.08-.62.25-.79s.43-.25.79-.25.6.08.77.25c.17.17.25.43.25.79v9.34c0,.35-.08.6-.25.77s-.42.25-.75.25-.59-.08-.77-.25-.27-.42-.27-.77v-1.08c-.19.65-.51,1.17-.96,1.54s-1.04.56-1.76.56c-.56,0-1.07-.09-1.52-.28s-.85-.45-1.18-.79-.59-.75-.76-1.22-.26-1-.26-1.57v-6.5c0-.36.08-.62.25-.79s.42-.25.77-.25.62.08.79.25c.17.17.25.43.25.79v5.96c0,.32.04.63.13.92s.21.55.38.78c.17.23.37.41.62.55s.54.21.89.21.66-.1.95-.29c.29-.19.53-.43.74-.72.21-.29.37-.6.48-.95.11-.35.17-.67.17-.98v-5.48h0Z" fill="#fff"/>
      <path d="M52.79,174.32c-.35,0-.6-.08-.77-.25s-.25-.43-.25-.79v-9.34c0-.35.08-.6.25-.77s.42-.25.77-.25.6.08.77.25c.17.17.25.42.25.77v1.08c.12-.32.3-.61.54-.87s.52-.48.85-.66c.33-.18.68-.32,1.07-.42.39-.1.78-.15,1.18-.15.6,0,1.09.1,1.47.31.38.21.68.49.91.85s.38.78.47,1.26.13.99.13,1.54v.24c0,.35-.08.61-.25.78s-.43.26-.79.26-.6-.09-.77-.26c-.17-.17-.25-.43-.25-.78v-.2c0-.28-.02-.54-.07-.79s-.13-.46-.24-.64-.27-.32-.48-.43c-.21-.11-.48-.16-.81-.16s-.69.05-1.04.14c-.35.09-.66.24-.95.44s-.52.44-.7.73-.27.62-.27,1.01v6.06c0,.36-.08.62-.25.79s-.42.25-.77.25h0Z" fill="#fff"/>
      <path d="M71.23,163.52c.32,0,.56.09.71.27.15.18.23.42.23.73s-.08.55-.23.73-.39.27-.71.27h-3.5v3.92c0,.97.13,1.7.4,2.17s.67.71,1.2.71c.25,0,.5-.02.74-.06s.5-.13.78-.26c.29-.15.55-.18.78-.1.23.08.42.26.58.54.17.29.23.56.16.8s-.24.43-.52.56c-.41.23-.86.37-1.33.43s-.98.09-1.53.09c-.51,0-.97-.09-1.38-.27-.41-.18-.77-.46-1.06-.83s-.52-.85-.67-1.42-.23-1.25-.23-2.04v-4.24h-2.18c-.31,0-.54-.09-.69-.27-.15-.18-.23-.42-.23-.73s.08-.55.23-.73c.15-.18.39-.27.71-.27h2.16v-2.46c0-.36.09-.62.26-.79.17-.17.43-.25.78-.25s.61.08.78.25.26.43.26.79v2.46h3.5,0Z" fill="#fff"/>
      <path d="M77.51,173.28c0,.36-.08.62-.25.79s-.43.25-.79.25-.6-.08-.77-.25-.25-.43-.25-.79v-12.94c0-.35.08-.6.25-.77s.42-.25.75-.25.59.08.77.25.27.42.27.77v4.68c.19-.65.51-1.17.96-1.54s1.04-.56,1.76-.56c.56,0,1.07.09,1.52.28s.85.45,1.18.79.59.75.76,1.22c.17.47.26,1,.26,1.57v6.5c0,.36-.08.62-.25.79s-.42.25-.77.25-.62-.08-.79-.25-.25-.43-.25-.79v-5.96c0-.32-.04-.63-.13-.92s-.21-.55-.38-.78-.37-.41-.62-.55-.54-.21-.89-.21-.66.1-.95.29c-.29.19-.53.43-.74.72-.21.29-.37.6-.48.95-.11.35-.17.67-.17.98v5.48h0Z" fill="#fff"/>
      <path d="M101.67,165.52h4.86c.31,0,.55.09.73.27s.27.42.27.73-.09.53-.27.71c-.18.18-.42.27-.73.27h-4.86v3.84c0,.27.07.47.2.6s.33.2.6.2h4.74c.31,0,.54.09.69.27s.23.42.23.73-.08.53-.23.71-.38.27-.69.27h-5.92c-.57,0-1-.14-1.27-.41s-.41-.7-.41-1.27v-11.24c0-.57.14-1,.41-1.27s.7-.41,1.27-.41h5.92c.31,0,.54.09.69.27.15.18.23.42.23.71s-.08.55-.23.73-.38.27-.69.27h-4.74c-.27,0-.47.07-.6.2-.13.13-.2.33-.2.6v3.22h0Z" fill="#fff"/>
      <path d="M118.99,174.32c-.35,0-.61-.09-.78-.26s-.26-.43-.26-.78v-1.2c-.12.33-.27.64-.44.91s-.38.51-.62.7c-.24.19-.52.35-.83.46-.31.11-.68.17-1.09.17-.79,0-1.43-.16-1.94-.47s-.9-.72-1.18-1.23-.47-1.08-.57-1.73-.15-1.3-.15-1.97c0-.71.06-1.42.17-2.13s.32-1.36.62-1.93.72-1.04,1.26-1.4,1.24-.54,2.09-.54c.71,0,1.3.19,1.78.58.48.39.78.88.9,1.48v-4.62c0-.36.09-.62.26-.79.17-.17.43-.25.78-.25s.61.08.78.25.26.43.26.79v12.92c0,.35-.08.61-.25.78s-.43.26-.79.26h0ZM115.33,172.32c.35,0,.68-.07,1-.21s.6-.33.84-.56.43-.5.57-.81.21-.63.21-.96v-1.88c0-.33-.06-.67-.17-1.02s-.27-.67-.47-.96c-.2-.29-.45-.53-.74-.72s-.61-.28-.96-.28c-.53,0-.96.11-1.27.34s-.56.53-.73.9c-.17.37-.28.79-.33,1.26s-.07.94-.07,1.42.03.91.09,1.34.17.8.33,1.12c.16.32.38.57.66.75.28.18.63.27,1.04.27h0Z" fill="#fff"/>
      <path d="M127.17,173.28v-6.88c0-.29-.07-.51-.22-.66s-.37-.22-.66-.22h-1.58c-.31,0-.55-.09-.72-.27-.17-.18-.26-.42-.26-.73s.09-.55.26-.73c.17-.18.41-.27.72-.27h2.74c.6,0,1.05.15,1.34.44s.44.74.44,1.34v7.98c0,.36-.08.62-.25.79s-.43.25-.79.25-.6-.08-.77-.25-.25-.43-.25-.79h0ZM128.09,161.6c-.47,0-.83-.12-1.1-.36s-.4-.57-.4-.98.13-.74.4-.99c.27-.25.63-.37,1.1-.37s.83.12,1.1.37.4.58.4.99-.13.74-.4.98c-.27.24-.63.36-1.1.36Z" fill="#fff"/>
      <path d="M143.23,163.52c.32,0,.56.09.71.27.15.18.23.42.23.73s-.08.55-.23.73-.39.27-.71.27h-3.5v3.92c0,.97.13,1.7.4,2.17s.67.71,1.2.71c.25,0,.5-.02.74-.06s.5-.13.78-.26c.29-.15.55-.18.78-.1.23.08.42.26.58.54.17.29.23.56.16.8-.07.24-.24.43-.52.56-.41.23-.86.37-1.33.43s-.98.09-1.53.09c-.51,0-.97-.09-1.38-.27-.41-.18-.77-.46-1.06-.83s-.52-.85-.67-1.42-.23-1.25-.23-2.04v-4.24h-2.18c-.31,0-.54-.09-.69-.27-.15-.18-.23-.42-.23-.73s.08-.55.23-.73.39-.27.71-.27h2.16v-2.46c0-.36.09-.62.26-.79s.43-.25.78-.25.61.08.78.25.26.43.26.79v2.46h3.5Z" fill="#fff"/>
      <path d="M151.17,173.28v-6.88c0-.29-.07-.51-.22-.66s-.37-.22-.66-.22h-1.58c-.31,0-.55-.09-.72-.27-.17-.18-.26-.42-.26-.73s.09-.55.26-.73.41-.27.72-.27h2.74c.6,0,1.05.15,1.34.44.29.29.44.74.44,1.34v7.98c0,.36-.08.62-.25.79s-.43.25-.79.25-.6-.08-.77-.25-.25-.43-.25-.79h0ZM152.09,161.6c-.47,0-.83-.12-1.1-.36s-.4-.57-.4-.98.13-.74.4-.99c.27-.25.63-.37,1.1-.37s.83.12,1.1.37.4.58.4.99-.13.74-.4.98c-.27.24-.63.36-1.1.36Z" fill="#fff"/>
      <path d="M163.69,174.32c-.79,0-1.47-.15-2.04-.44-.57-.29-1.05-.69-1.43-1.2-.38-.51-.66-1.11-.84-1.81s-.27-1.46-.27-2.27.09-1.56.26-2.25.45-1.28.84-1.79.87-.91,1.44-1.2,1.25-.44,2.04-.44,1.49.15,2.06.44c.57.29,1.05.69,1.43,1.19.38.5.66,1.1.83,1.79s.26,1.45.26,2.26-.09,1.57-.27,2.27-.46,1.3-.84,1.81c-.38.51-.86.91-1.43,1.2-.57.29-1.25.44-2.04.44ZM163.69,172.36c.44,0,.82-.09,1.13-.28s.57-.45.78-.78c.21-.33.36-.73.46-1.19s.15-.96.15-1.51-.05-1.05-.14-1.5-.24-.84-.45-1.17c-.21-.33-.47-.58-.79-.77-.32-.19-.7-.28-1.14-.28s-.82.09-1.14.28c-.32.19-.58.45-.79.78-.21.33-.36.73-.45,1.18s-.14.95-.14,1.5.05,1.05.15,1.5c.1.45.25.85.46,1.18s.47.59.78.78.69.28,1.13.28h0Z" fill="#fff"/>
      <path d="M173.51,173.28c0,.36-.08.62-.25.79s-.43.25-.79.25-.6-.08-.77-.25-.25-.43-.25-.79v-9.34c0-.35.08-.6.25-.77s.42-.25.75-.25.59.08.77.25c.18.17.27.42.27.77v1.08c.19-.65.51-1.17.96-1.54.45-.37,1.04-.56,1.76-.56.56,0,1.07.09,1.52.28s.85.45,1.18.79c.33.34.59.75.76,1.22s.26,1,.26,1.57v6.5c0,.36-.08.62-.25.79s-.42.25-.77.25-.62-.08-.79-.25-.25-.43-.25-.79v-5.96c0-.32-.04-.63-.13-.92-.09-.29-.21-.55-.38-.78s-.37-.41-.62-.55-.54-.21-.89-.21-.66.1-.95.29c-.29.19-.53.43-.74.72-.21.29-.37.6-.48.95-.11.35-.17.67-.17.98v5.48h0Z" fill="#fff"/>
    </g>
  </g>
</svg>