<?xml version="1.0" encoding="UTF-8"?>
<svg id="Layer_1" xmlns="http://www.w3.org/2000/svg" version="1.1" viewBox="0 0 256.07 271.81">
  <!-- Generator: Adobe Illustrator 30.6.0, SVG Export Plug-In . SVG Version: 2.1.4 Build 109)  -->
  <g id="Layer_11" data-name="Layer_1">
    <path d="M11.39,241.27s19.71-29.2,17.78-33.99c0,0,7.34-3.09,10.07-8.44l5.72,3.97,7.46,3.54,8.01,2.2,5.43.32,5.9-1.04,4.24-3.91,3.78-15.95,4.88-14.44.26-17.77,2.83-13.13,11.71,10.69,8.32-6.71,2.32-6.03,3.13-4.59,5.57-8.41-.19-1.72h12.48l8.47-4.8,2.17-5.88,7.8.22,4.57-5.32,1.57-8.66,16.42,5.73,23.14-19.23-.2-22.82,25,17.57,20.99,21.74,11.83,18.78,2.6,10.42-8.88,11.69-15.03,5.99-31.14,4.67c-.37.93-.07,1.63,1.04,2.05l10.3,20.42,2.31,15.24-3.39,4.92-6.93,2.68-13.14,4.13-13.41,3.91-21.46,5.54-16.28,8.68-11.89,10.15-10.59,15.82-5.3,11.27-4.79,10.18"/>
    <polygon points="156.53 104.24 139.76 82.48 139.76 70.66 105.52 104.24 79.91 124.75 37.85 149.89 12.49 171.32 7.63 176.09 6.2 180.87 10.95 182.57 5.64 192.54 5.64 197.91 11.64 202.59 18.56 204.3 20.86 206.06 21.6 206.44 24.26 207.51 28.68 208.03 32.98 207.54 39.78 201.34 40.94 199.84 47.6 203.89 62.62 208.81 73.11 208.81 78.04 205.67 79.82 194.2 85.35 179.83 87.05 162.4 86.54 155.85 89.09 142.93 93.44 145.14 100.02 152.65 102.78 152.79 107.31 149.01 111.96 141.57 115.76 135.7 119.4 129.43 120.63 126.09 132.53 126.11 140.78 122.44 143.25 115.81 150.09 115.6 155.57 111.16 156.53 104.24"/>
    <path d="M168.03,37.33C153.21,5.24,19.58-42.32,1.08,81.96c-1.19,7.98,10.81,10.16,14.54,7,2.98-2.53,14.08,16.06,13.62,23.28,0,0,4.83-2.23,3.89,1.63"/>
    <path d="M108.29,99.53c13.72-13.03,24.43-24.47,27.71-28.02" fill="none" stroke="#fff" stroke-miterlimit="10"/>
    <path d="M37.13,148.67c29.69-18.55,43.6-23.85,71.17-49.14" fill="none" stroke="#fff" stroke-miterlimit="10"/>
    <path d="M34.05,112.98c-.82.53-7.28,37.76,3.07,35.69" fill="none" stroke="#fff" stroke-miterlimit="10"/>
    <path d="M153.79,34.67c-62.83,7.83-109.74,59.89-119.74,78.31,0,0-10.15,34.77,2.16,36.66l37.78-22.73,25.43-19.22,19.62-18.62,18.24-19.45,8.33-10.31,8.44-7.24,19.66-3.49,11.07,6.74s4.16-5.51-1.28-10-19.76-10.9-24.57-9.99"/>
    <path d="M200.4,155.97s-.97,1.67,1.64,2.14l7.87,17.75,3.7,11.67-.81,8.54-4.86,3.08-12.19-1.73-26.13-12.94-19.17-11.19-7.65-4.64s1.22-1.05,0-2.13,17.16-4.47,17.16-4.47l28.18-4.7,12.27-1.38h-.01Z"/>
    <path d="M151.74,164.51c49.63,26.03,57.21,25,39.28-7.15-13.52-.17-26.38,3.07-39.28,7.15Z" stroke="#fff" stroke-miterlimit="10"/>
    <path d="M209.14,59.8c-3.66-2.31-11.64-5.85-19.63.42" fill="none" stroke="#fff" stroke-linecap="round" stroke-linejoin="round" stroke-width="5"/>
    <path d="M242.23,99.43c6.82-4.5,11.2-12.41,11.2-21.47,0-5.78-1.87-11.11-5.02-15.39-4.53-6.16-11.72-10.14-19.81-10.14-9.89,0-18.44,5.95-22.43,14.56" stroke="#fff" stroke-linecap="round" stroke-linejoin="round" stroke-width="5"/>
    <path d="M143.87,169.3c23.06,11.67,98.88,67.14,58.3-10.95" fill="none" stroke="#fff" stroke-linecap="round" stroke-miterlimit="10" stroke-width="2"/>
    <path d="M191.28,158.03c17.92,32.15,10.09,32.51-39.54,6.48" fill="none" stroke="#fff" stroke-linecap="round" stroke-miterlimit="10" stroke-width="2"/>
    <path d="M209.91,198.61c-8.93,4.15-35.6,11.81-41.88,13.02-17.15,3.31-42.33,11.46-60.82,59.18" fill="none" stroke="#fff" stroke-linecap="round" stroke-miterlimit="10" stroke-width="2"/>
    <path d="M197.56,67.03c23.19,12.39,64.37,54.76,56.53,69.07-14.53,26.52-67.52,13.67-113.45,31.23" fill="none" stroke="#fff" stroke-linecap="round" stroke-linejoin="round" stroke-width="2"/>
    <path d="M138.6,77.29c0,15.64,12.68,28.32,28.32,28.32s28.32-12.68,28.32-28.32c0-6.41-2.13-12.33-5.72-17.07-5.17-6.83-13.37-11.25-22.59-11.25-15.64,0-28.32,12.68-28.32,28.32h-.01Z" stroke="#fff" stroke-linecap="round" stroke-linejoin="round" stroke-width="5"/>
    <path d="M107.38,100.41c13.72-13.03,24.43-24.47,27.71-28.02.99-1.07,2.07-2.04,3.29-2.83" fill="none" stroke="#fff" stroke-linecap="round" stroke-linejoin="round" stroke-width="2"/>
    <path d="M33.14,113.86c10-18.42,56.91-70.48,119.74-78.31,10.56-1.32,21,3.27,30.61,9.76,2.91,1.97,3.52,6.05,1.79,9.11l-.51.9" fill="none" stroke="#fff" stroke-linecap="round" stroke-linejoin="round" stroke-width="2"/>
    <path d="M29.17,208.03c-5.69,15.1-11.96,28.33-17.78,33.24" fill="none" stroke="#fff" stroke-linecap="round" stroke-linejoin="round" stroke-width="2"/>
    <path d="M164.96,37.06c1.49,4.2,2.29,7.79,2.6,10.93" fill="none" stroke="#fff" stroke-linecap="round" stroke-linejoin="round"/>
    <path d="M158.92,36.41c.81,4.18,1.42,8.64,1.94,13.22" fill="none" stroke="#fff" stroke-linecap="round" stroke-linejoin="round"/>
    <path d="M154.78,35.36c-.42,6.1.19,10.69,1.3,14.55" fill="none" stroke="#fff" stroke-linecap="round" stroke-linejoin="round"/>
    <path d="M146.61,36.48c-.61,2.77-.46,12.02.2,20.88" fill="none" stroke="#fff" stroke-linecap="round" stroke-linejoin="round"/>
    <path d="M142.29,60.21s-3.47-16.22-1.35-19.27" fill="none" stroke="#fff" stroke-linecap="round" stroke-linejoin="round"/>
    <path d="M136.42,71.08s-1.15-27.33.34-28.06" fill="none" stroke="#fff" stroke-linecap="round" stroke-linejoin="round"/>
    <path d="M129.75,43.02c-2.5.65-1.91,21.8-2.18,37.33" fill="none" stroke="#fff" stroke-linecap="round" stroke-linejoin="round"/>
    <path d="M121.37,48.49c-5.58,5.43-1.75,21.74-4.03,42.25" fill="none" stroke="#fff" stroke-linecap="round" stroke-linejoin="round"/>
    <path d="M180.07,52.21s1.94-3.38-1.32-9.69" fill="none" stroke="#fff" stroke-linecap="round" stroke-linejoin="round"/>
    <path d="M81.61,64.5c4.06,12.8,7.23,33.92,10.06,46.1" fill="none" stroke="#fff" stroke-linecap="round" stroke-linejoin="round"/>
    <path d="M101.15,105.7c-1.23-3.32-5.23-27.83-5.46-37.85" fill="none" stroke="#fff" stroke-linecap="round" stroke-linejoin="round"/>
    <path d="M107.38,100.41c3.24-18.9-1.95-45.15,2.31-48.08" fill="none" stroke="#fff" stroke-linecap="round" stroke-linejoin="round"/>
    <path d="M168.03,37.33C153.21,5.24,19.58-42.32,1.08,81.96c-1.19,7.98,10.81,10.16,14.54,7,2.98-2.53,14.08,16.06,13.62,23.28" fill="none" stroke="#fff" stroke-linecap="round" stroke-linejoin="round" stroke-width="2"/>
    <path d="M74.72,69.56s13.44,43.06,11.92,44.3" fill="none" stroke="#fff" stroke-linecap="round" stroke-linejoin="round"/>
    <path d="M68.81,74.27c6.46,4.16,13.47,38.24,14.4,46.05" fill="none" stroke="#fff" stroke-linecap="round" stroke-linejoin="round"/>
    <path d="M36.93,149.11s-2.25-5.48-2.52-24.13" fill="none" stroke="#fff" stroke-linecap="round" stroke-linejoin="round"/>
    <path d="M46.42,143.3s.58-10.98-7.97-37.6" fill="none" stroke="#fff" stroke-linecap="round" stroke-linejoin="round"/>
    <path d="M51.77,140.11s-3.44-24.31-8.4-40.67" fill="none" stroke="#fff" stroke-linecap="round" stroke-linejoin="round"/>
    <path d="M59.17,135.72c-2.76-6.28-7.92-35.16-10.89-41.92" fill="none" stroke="#fff" stroke-linecap="round" stroke-linejoin="round"/>
    <path d="M66.46,131.34c-.33-3.25-7.3-29.46-11.9-44.12" fill="none" stroke="#fff" stroke-linecap="round" stroke-linejoin="round"/>
    <path d="M72.48,127.58c.11-3.63-9.09-38.42-10.84-46.61" fill="none" stroke="#fff" stroke-linecap="round" stroke-linejoin="round"/>
    <path d="M71.47,94.56c-.59-1.87-1.17-3.7-1.71-5.42" fill="none" stroke="#fff" stroke-linecap="round" stroke-linejoin="round"/>
    <path d="M79.94,122.63c-.51-2.63-3.52-12.37-6.62-22.21" fill="none" stroke="#fff" stroke-linecap="round" stroke-linejoin="round"/>
    <path d="M154.14,107.34c-.68,4.27-3.44,9.71-13.21,8.48,0,0,.31,12.26-22.86,10.22.28,1.86-11.61,23.26-18.09,26.76-.88.32-1.86.04-2.44-.69-1.71-2.12-6.5-8.69-10.51-9.03" fill="none" stroke="#fff" stroke-linecap="round" stroke-linejoin="round" stroke-width="2"/>
    <path d="M86.91,143.27c-.24,3.87-.89,8.63-2.54,12.36,0,0,2.3,19.71-4.6,32.35-1.67,2.52-2.65,7.95-3.41,14.35-.23,6.11-13.16,10.81-31.02.63,0,0-3.65-1.23-5.67-4.55" fill="none" stroke="#fff" stroke-linecap="round" stroke-linejoin="round" stroke-width="2"/>
    <path d="M36.21,149.56c29.69-18.55,43.6-23.85,71.17-49.14" fill="none" stroke="#fff" stroke-linecap="round" stroke-linejoin="round" stroke-width="2"/>
    <path d="M36.21,149.56c-10.36,2.07-3.89-35.16-3.07-35.69" fill="none" stroke="#fff" stroke-linecap="round" stroke-linejoin="round" stroke-width="2"/>
    <path d="M41.13,195.4c-6.88,14.45-17.01,12.33-17.01,12.33-1.38-.58-5.2-.29-4.86-3.5,0,0-23.57.59-8.48-22.22-9.41,2.3-8.51-7.66,25.46-32.46" fill="none" stroke="#fff" stroke-linecap="round" stroke-linejoin="round" stroke-width="2"/>
    <path d="M171.6,38.69s3.54,6.83,2.12,9.89" fill="none" stroke="#fff" stroke-linecap="round" stroke-linejoin="round"/>
  </g>
</svg>