<?xml version="1.0" encoding="UTF-8"?>
<svg id="Draw" xmlns="http://www.w3.org/2000/svg" version="1.1" viewBox="0 0 612 792">
  <!-- Generator: Adobe Illustrator 30.1.0, SVG Export Plug-In . SVG Version: 2.1.1 Build 136)  -->
  <rect x=".12" y=".39" width="611.76" height="791.21" fill="#48acba"/>
  <path d="M0,643.19v148.81h612v-144.92c-165.42-15.22-336.72-8.21-507.58-4.31-6.9-7.86-41.05-13.98-104.3-13.13l-.13,13.55Z" fill="#efa737"/>
  <path d="M181.1,428.58l-59.47-23.42S-.96,592.2,51.67,622.13c0,0,46.12-14.96,86.51,36.64l336.16,7.64s-15.16-159.55-21.35-190.09l-271.89-47.75Z" fill="#61675a"/>
  <path d="M237.12,645.37l93.74-7.18s69.69-153.52,62.76-174.09c0,0-120.08,40.05-188.5-30.44,0,0-1.14,159.98,32,211.71Z" fill="#fff"/>
  <path d="M202.62,668.17s68.34,47.99,69.42,98.55c0,0,234.76-40.14,280.89-28.38l-130.4-89.31s-190.74-27.75-219.91,19.13Z" fill="#fff"/>
  <path d="M390.36,459.78l42.64,7.13c172.4,30.38,152.64-33.52,152.64-33.52C402.73,78.29,34.72,282.21,43.17,324.1c10.83,63.48,140.42,101.13,140.42,101.13l28.02,8.46s55.47,70.71,178.75,26.11Z" fill="#a1cdee"/>
  <path d="M170.57,341.34c18.2-31.6,85.45-31.39,115.68-42.58l24.01,17.14s-121.5,13.63-139.69,25.44Z" fill="#0c8fcd"/>
  <path d="M170.57,341.34s116.24-32.7,139.69-25.44c0,0-56.58,77.27-139.69,25.44Z" fill="#fff"/>
  <path d="M484.16,384.45" fill="#0c8fcd"/>
  <path d="M394.52,318.05c41.84,12.83,67.53,38.23,89.63,66.4,0,0-46.94-39.9-121-53.12l31.36-13.28Z" fill="#0c8fcd"/>
  <path d="M357.31,329.4s10.6,97.66,122.04,51.29c0,0-115.46-58.35-122.04-51.29Z" fill="#fff"/>
  <path d="M205.82,681.91s63.01,23.7,69.21-8.89c-3.5-15.08-33.66-2.42-90.75-40.12-31.34-20.7-55.21,44.43-47.67,52.78,1.89,2.09,6.02,9.14,10.46,10.31,13.34,3.5,23.59,4.67,41.84,5.79,15.92.97,37.14,5.08,40.34-1.28,2.15-4.28,0-11.58-23.43-18.58Z" fill="#a1cdee"/>
  <path d="M205.82,681.91s63.01,23.7,69.21-8.89c-3.5-15.08-33.66-2.42-90.75-40.12-31.34-20.7-55.21,44.43-47.67,52.78,1.89,2.09,6.02,9.14,10.46,10.31,13.34,3.5,23.59,4.67,41.84,5.79,15.92.97,37.14,5.08,40.34-1.28,2.15-4.28,0-11.58-23.43-18.58Z" fill="none" stroke="#000" stroke-linecap="round" stroke-linejoin="round" stroke-width="8"/>
  <path d="M422.53,649.03c-9.01,4.88-15.44,10.84-23.3,10.84,0,0-27-1.5-31.5-13.88,0,0,30.38-19.88,54.56-45.94,4.07-3.72,57.16-9.47,67.31,44.75,0,0-1.69,14.88,4.13,20.32,0,0,2.25,10.69-2.7,25.66l-68.5-41.74" fill="#a1cdee"/>
  <path d="M262.79,227.89s30.6-110.55,11.19-141.28l12.89.75s13.77,39.39,4.15,144.22l-28.24-3.68Z" fill="#0c8fcd"/>
  <path d="M184.18,431.74c-.54,1.27-5.81,188.34,50.2,216.51,0,0-32.54-102.79-29.26-214.58l-20.94-1.92Z" fill="#072d37"/>
  <path d="M415.77,467.8h-22.15s-39.2,143.85-62.76,170.39c0,0,81.9-104.95,84.91-170.39Z" fill="#072d37"/>
  <path d="M245.69,643.92c1.57-4,34.36-85.18,40.21-90.17,15.87,32.53,29.45,58.73,34.76,83.73l-74.96,6.44Z" fill="#b92027"/>
  <polygon points="283.29 553.02 329.11 511.45 299.61 472.68 278.08 470.78 258.67 504.12 283.29 553.02" fill="#b92027"/>
  <path d="M361.72,241.9s56.74-91.71,67.34-96.6l4.8,7.66s-55.43,88.99-53.12,94.64l-19.02-5.7Z" fill="#0c8fcd" stroke="#000" stroke-miterlimit="10" stroke-width="8"/>
  <path d="M211.61,433.68l-30.51-5.1s-129.58-37.65-140.42-101.13c-8.45-41.88,359.56-245.81,542.47,109.3,0,0,19.76,63.9-152.64,33.52l-42.64-7.13" fill="none" stroke="#000" stroke-miterlimit="10" stroke-width="8"/>
  <path d="M176.84,341.34s79.19-25.48,137.04-25.48" fill="none" stroke="#000" stroke-linecap="round" stroke-linejoin="round" stroke-width="8"/>
  <path d="M166.45,347.79c31.81-55.38,91.67-19.19,162.52-73.84" fill="none" stroke="#000" stroke-linecap="round" stroke-linejoin="round" stroke-width="8"/>
  <path d="M310.26,315.9c-8.75,12.37-55.84,74.82-140.96,27.3" fill="none" stroke="#000" stroke-linecap="round" stroke-linejoin="round" stroke-width="8"/>
  <path d="M284.02,298.76c15.67,5.1,26.24,17.14,26.24,17.14" fill="none" stroke="#000" stroke-linecap="round" stroke-linejoin="round" stroke-width="8"/>
  <path d="M350.99,325.56c3.18,7.79,64.95,11.84,134.71,60.44-41.4-68.23-123.63-68.81-142-94.76,0,0-4.67-7,8.75-14.58" fill="none" stroke="#000" stroke-linecap="round" stroke-linejoin="round" stroke-width="8"/>
  <path d="M363.16,331.33s10.23-8.96,31.36-13.28" fill="none" stroke="#000" stroke-linecap="round" stroke-linejoin="round" stroke-width="8"/>
  <path d="M482.69,383.93c-25.47,4.13-112.94,36.75-125.38-54.53" fill="none" stroke="#000" stroke-linecap="round" stroke-linejoin="round" stroke-width="8"/>
  <path d="M237.14,325.57c-.54,1.16-.85,2.46-.85,3.83,0,5,4.06,9.06,9.06,9.06s9.06-4.06,9.06-9.06c0-2.5-1.01-4.77-2.65-6.41" fill="none" stroke="#000" stroke-linecap="round" stroke-linejoin="round" stroke-width="8"/>
  <path d="M402.01,343.36c-1.02.77-1.9,1.78-2.53,2.99-2.34,4.42-.64,9.9,3.78,12.24s9.9.64,12.24-3.78c1-1.89,1.26-3.97.89-5.91" fill="none" stroke="#000" stroke-linecap="round" stroke-linejoin="round" stroke-width="8"/>
  <path d="M97.33,354.03c85.87,13.87,106.63,118.92,208.67,118.88,94.43,3.63,159.77-51.27,226.02-26.77" fill="none" stroke="#000" stroke-linecap="round" stroke-linejoin="round" stroke-width="8"/>
  <path d="M547.52,734.18c-18.52-14.16-80.58-60.87-122.54-83.47" fill="none" stroke="#000" stroke-linecap="round" stroke-linejoin="round" stroke-width="8"/>
  <path d="M275.03,764.63s219.33-34.76,271.53-27.63" fill="none" stroke="#000" stroke-linecap="round" stroke-linejoin="round" stroke-width="12"/>
  <path d="M229.83,697.02c35.86,17.56,43.2,67.43,43.2,67.43" fill="none" stroke="#000" stroke-linecap="round" stroke-linejoin="round" stroke-width="8"/>
  <path d="M368.54,644.75c-72.91-16.12-149.51,6.96-149.51,6.96" fill="none" stroke="#000" stroke-linecap="round" stroke-linejoin="round" stroke-width="6"/>
  <path d="M444.22,643.37c-24.56,0-33.75,17.06-47.06,17.06-10.2,1.5-31.71-.81-31.5-13.88,0,0,29.54-19.33,53.55-44.86,1.01-1.07,2.28-1.84,3.7-2.22,11.79-3.13,55.51-2.79,64.62,45.89,0,0-1.69,14.88,4.13,20.32,0,0,2.25,10.69-2.7,25.66" fill="none" stroke="#000" stroke-linecap="round" stroke-linejoin="round" stroke-width="8"/>
  <path d="M51.67,622.13c29.06-6.65,48.64-4.43,84.19,29.03" fill="none" stroke="#000" stroke-linecap="round" stroke-linejoin="round" stroke-width="18"/>
  <path d="M119.28,409.27c-30.83,34.26-100.36,146.12-80.95,206.21,1.81,5.61,7.59,8.94,13.34,7.65" fill="none" stroke="#000" stroke-linecap="round" stroke-linejoin="round" stroke-width="16"/>
  <path d="M176.94,629.51s-11.16-29.3-8.62-61.36c0,0-4.06,62.01-.38,61.36s9,0,9,0Z" stroke="#000" stroke-linecap="round" stroke-linejoin="round" stroke-width="8"/>
  <path d="M404.76,615.85s-11.95-18.84-14.65-36.22,18.65,20.42,25.65,25.64l-11.01,10.58Z" stroke="#000" stroke-linecap="round" stroke-linejoin="round" stroke-width="8"/>
  <path d="M476.2,615.86c-1.59-23.37-21.4-90.41-23.21-139.54" fill="none" stroke="#000" stroke-linecap="round" stroke-linejoin="round" stroke-width="9"/>
  <path d="M226.18,647.82c-9.71-13.72-48.37-77.54-41.1-215.17" fill="none" stroke="#000" stroke-linecap="round" stroke-linejoin="round" stroke-width="9"/>
  <path d="M226.03,647.93c-10.92-13.84-56.4-80.22-49.09-218.66" fill="none" stroke="#000" stroke-linecap="round" stroke-linejoin="round" stroke-width="9"/>
  <path d="M466.86,607.1c-1.59-23.37-13.34-81.65-15.15-130.77" fill="none" stroke="#000" stroke-linecap="round" stroke-linejoin="round" stroke-width="10"/>
  <path d="M333.38,638.24c9.05-11.86,70.83-95.08,82.39-170.44" fill="none" stroke="#000" stroke-linecap="round" stroke-linejoin="round" stroke-width="8"/>
  <path d="M333.31,638.19c8.37-12.12,64.88-96.11,76.43-171.4" fill="none" stroke="#000" stroke-linecap="round" stroke-linejoin="round" stroke-width="8"/>
  <path d="M123.73,410.98c-30.83,34.26-93.07,144.41-73.66,204.5" fill="none" stroke="#000" stroke-linecap="round" stroke-linejoin="round" stroke-width="16"/>
  <path d="M51.67,622.13c29.06-6.65,47.98,3.18,83.54,36.64" fill="none" stroke="#000" stroke-linecap="round" stroke-linejoin="round" stroke-width="18"/>
  <path d="M327.48,638.19s50.29-85.17,66.14-174.09" fill="none" stroke="#000" stroke-linecap="round" stroke-linejoin="round" stroke-width="8"/>
  <path d="M239.09,644.86c12.18-46.02,30.02-73.33,46.8-92.37,7.89,7.93,27.01,44.21,41.58,85.7" fill="none" stroke="#000" stroke-linecap="round" stroke-linejoin="round" stroke-width="8"/>
  <path d="M205.12,432.65c-6.89,126.93,32,212.72,32,212.72" fill="none" stroke="#000" stroke-linecap="round" stroke-linejoin="round" stroke-width="8"/>
  <path d="M262.79,231.57s29.07-100.69,13.36-141.26" fill="none" stroke="#000" stroke-linecap="round" stroke-linejoin="round" stroke-width="8"/>
  <path d="M289.8,231.57s13.88-74.79-2.92-144.22" fill="none" stroke="#000" stroke-linecap="round" stroke-linejoin="round" stroke-width="5"/>
  <path d="M289.69,59.54c7.73,14.68,5.18,26.86-8.18,28.49-8.9,1.09-20.13-8.81-20.77-22.5-.7-15.16-1.11-22.78,6.12-24.9,10.58-3.09,16.48,6.84,22.83,18.9Z" fill="#a1cdee" stroke="#000" stroke-linecap="round" stroke-linejoin="round" stroke-width="8"/>
  <path d="M280.62,472.68c-7.23,8.89-38.37,47.66-44.32,62.89,0,0-20.21-22.62-28.07-29.27" fill="none" stroke="#000" stroke-linecap="round" stroke-miterlimit="10" stroke-width="12"/>
  <path d="M301.96,476.33s36.76,46.49,43.51,59.24c0,0,23.73-16.78,33-19.01" fill="none" stroke="#000" stroke-linecap="round" stroke-miterlimit="10" stroke-width="12"/>
  <path d="M290.88,557.15c10.03-6.08,35.51-26.06,42.43-39.7" fill="none" stroke="#000" stroke-linecap="round" stroke-linejoin="round" stroke-width="12"/>
  <path d="M258.67,500.81s10.85,50.29,28.34,53.98" fill="none" stroke="#000" stroke-linecap="round" stroke-linejoin="round" stroke-width="12"/>
  <path d="M245.69,642.66c1.57-4,34.36-85.18,40.21-90.17,15.87,32.53,29.45,58.73,34.76,83.73" fill="none" stroke="#000" stroke-linecap="round" stroke-linejoin="round" stroke-width="11"/>
  <path d="M287.01,549.79c-15.46-4.25-19.79-24.38-28.34-48.98" fill="none" stroke="#000" stroke-linecap="round" stroke-linejoin="round" stroke-width="12"/>
  <path d="M326.25,507.89c-5.76,14.81-11.58,29.4-39.25,41.89" fill="none" stroke="#000" stroke-linecap="round" stroke-linejoin="round" stroke-width="12"/>
  <path d="M361.72,241.9s36.33-65.25,70.7-100.09" fill="none" stroke="#000" stroke-miterlimit="10" stroke-width="5"/>
  <path d="M380.74,247.6s40.49-91.08,62-102.3" fill="none" stroke="#000" stroke-linecap="round" stroke-miterlimit="10" stroke-width="8"/>
  <path d="M466.35,124.04c-1.93,7.8-18.36,20.67-28.99,23.16-7.92,1.86-6.33-20.76.77-35.62s23.95-23.21,27.84-16.07c4.07,7.47,3.47,16.01.38,28.53Z" fill="#a1cdee" stroke="#000" stroke-miterlimit="10" stroke-width="8"/>
  <path d="M.76,628.85c32.33,3.2,111.99,1.8,120.37,12.03" fill="none" stroke="#000" stroke-linecap="round" stroke-miterlimit="10" stroke-width="8"/>
  <path d="M485.71,638.24s55.47,10.97,126.29,5.68" fill="none" stroke="#000" stroke-linecap="round" stroke-miterlimit="10" stroke-width="8"/>
</svg>